<?xml version="1.0" encoding="UTF-8" standalone="no"?>
<!-- Created with Inkscape (http://www.inkscape.org/) -->

<svg
   width="300.39969mm"
   height="300.36142mm"
   viewBox="0 0 300.39968 300.36142"
   version="1.1"
   id="svg1"
   xml:space="preserve"
   xmlns:inkscape="http://www.inkscape.org/namespaces/inkscape"
   xmlns:sodipodi="http://sodipodi.sourceforge.net/DTD/sodipodi-0.dtd"
   xmlns="http://www.w3.org/2000/svg"
   xmlns:svg="http://www.w3.org/2000/svg"><sodipodi:namedview
     id="namedview1"
     pagecolor="#ffffff"
     bordercolor="#000000"
     borderopacity="0.25"
     inkscape:showpageshadow="2"
     inkscape:pageopacity="0.0"
     inkscape:pagecheckerboard="0"
     inkscape:deskcolor="#d1d1d1"
     inkscape:document-units="mm"
     showgrid="false" /><defs
     id="defs1" /><g
     inkscape:label="Layer 1"
     inkscape:groupmode="layer"
     id="layer1"
     transform="translate(34.252603,70.046651)"><path
       style="fill:#ffe680;stroke-width:9.8367"
       d="M 96.56623,229.0697 C 30.457625,220.58004 -22.60024,168.76799 -32.511302,103.02295 -46.308971,11.496026 23.620826,-70.046651 115.91059,-70.046651 c 76.19977,0 139.49656,56.03986 149.0533,131.964603 C 277.13602,158.62134 193.60761,241.53181 96.56623,229.0697 Z m 47.18398,-33.68538 c 11.98228,-2.88077 28.95874,-10.3301 38.75285,-17.00489 9.02153,-6.14833 23.2327,-20.09116 29.72669,-29.16532 10.05153,-14.04513 18.1851,-33.03979 20.75681,-48.47386 l 0.9217,-5.530588 H 116.02499 c -97.663256,0 -117.8831768,0.299036 -117.8831768,1.74385 0,0.959078 1.12167854,6.129248 2.49252064,11.489358 C 14.64179,163.21144 65.126671,201.19102 120.46527,198.59109 c 6.79932,-0.3197 17.27757,-1.76245 23.28504,-3.20677 z M 232.95007,59.098262 C 231.40649,50.207462 224.48313,30.916814 219.8706,22.654972 204.44952,-4.9673585 176.16291,-27.000773 145.8407,-35.009418 101.86782,-46.623508 52.099638,-30.333839 24.117382,4.8319591 11.570479,20.599988 2.2041723,40.646094 -1.237688,59.098262 l -0.9098944,4.879887 H 115.82511 233.7977 Z"
       id="path1" /></g></svg>
