<?xml version="1.0" encoding="UTF-8" standalone="no"?>
<!-- Created with Inkscape (http://www.inkscape.org/) -->

<svg
   version="1.1"
   id="svg1"
   width="240"
   height="240"
   viewBox="0 0 240 240"
   sodipodi:docname="fb.svg"
   inkscape:export-filename="fb.png"
   inkscape:export-xdpi="96"
   inkscape:export-ydpi="96"
   inkscape:version="1.3 (0e150ed6c4, 2023-07-21)"
   xmlns:inkscape="http://www.inkscape.org/namespaces/inkscape"
   xmlns:sodipodi="http://sodipodi.sourceforge.net/DTD/sodipodi-0.dtd"
   xmlns="http://www.w3.org/2000/svg"
   xmlns:svg="http://www.w3.org/2000/svg">
  <defs
     id="defs1" />
  <sodipodi:namedview
     id="namedview1"
     pagecolor="#ffffff"
     bordercolor="#000000"
     borderopacity="0.25"
     inkscape:showpageshadow="2"
     inkscape:pageopacity="0.0"
     inkscape:pagecheckerboard="0"
     inkscape:deskcolor="#d1d1d1"
     showgrid="false"
     inkscape:zoom="2.2892582"
     inkscape:cx="155.7273"
     inkscape:cy="143.93309"
     inkscape:window-width="1920"
     inkscape:window-height="991"
     inkscape:window-x="-9"
     inkscape:window-y="-9"
     inkscape:window-maximized="1"
     inkscape:current-layer="g1" />
  <g
     inkscape:groupmode="layer"
     inkscape:label="Image"
     id="g1">
    <path
       style="fill:#000000"
       d="m 6.3032762,238.0427 c -6.70448,-4.08796 -6.29854,3.51962 -6.29854,-118.04048 0,-121.5600962 -0.40594,-113.9525166 6.29854,-118.0404797 3.12405,-1.90484265 5.8682998,-1.95212965 113.5011238,-1.95577735 121.78271,-0.00413 114.15245,-0.4103409 118.24082,6.29481045 1.90497,3.12424 1.95204,5.8664646 1.95204,113.7014466 0,107.83499 -0.0471,110.57721 -1.95204,113.70145 -3.76239,6.17053 -4.57522,6.29855 -39.99082,6.29855 h -32.04966 v -46.5 -46.5 h 15.3533 15.35329 l 1.67454,-12.75 c 0.92099,-7.0125 1.94969,-15.1125 2.28599,-18 l 0.61146,-5.25 H 183.64403 166.00474 V 95.452568 c 0,-18.12775 0.74576,-20.523831 7.31632,-23.506964 3.39848,-1.542964 6.57661,-1.903577 16.93368,-1.921417 l 12.75,-0.02196 V 54.021277 38.040329 l -2.45895,-0.617156 c -1.35242,-0.339436 -9.78992,-0.68551 -18.75,-0.769052 -13.24297,-0.123476 -17.41366,0.19025 -22.29105,1.676773 -14.56756,4.439877 -23.51746,13.145144 -28.62503,27.842623 -1.88301,5.418528 -2.26494,9.097197 -2.65566,25.578708 l -0.45636,19.249995 H 112.38621 97.004736 v 18 18 h 15.500004 15.5 v 46.5 46.5 l -59.250004,-0.004 c -57.00117,-0.004 -59.3715198,-0.0778 -62.4514598,-1.95578 z"
       id="path1" />
    <rect
       style="opacity:1;fill:#f9f9f9;fill-opacity:1;stroke:none;stroke-width:8.07307;stroke-dasharray:none;stroke-dashoffset:407.029;stroke-opacity:1;paint-order:markers stroke fill"
       id="rect1"
       width="163.94218"
       height="239.76437"
       x="57.64447"
       y="0.044020422"
       ry="37.561775" />
    <path
       style="fill:#41445d;fill-opacity:1"
       d="m 6.3032762,238.0427 c -6.70448,-4.08796 -6.29854,3.51962 -6.29854,-118.04048 0,-121.5600962 -0.40594,-113.9525166 6.29854,-118.0404797 3.12405,-1.90484265 5.8682998,-1.95212965 113.5011238,-1.95577735 121.78271,-0.00413 114.15245,-0.4103409 118.24082,6.29481045 1.90497,3.12424 1.95204,5.8664646 1.95204,113.7014466 0,107.83499 -0.0471,110.57721 -1.95204,113.70145 -3.76239,6.17053 -4.57522,6.29855 -39.99082,6.29855 h -32.04966 v -46.5 -46.5 h 15.3533 15.35329 l 1.67454,-12.75 c 0.92099,-7.0125 1.94969,-15.1125 2.28599,-18 l 0.61146,-5.25 H 183.64403 166.00474 V 95.452568 c 0,-18.12775 0.74576,-20.523831 7.31632,-23.506964 3.39848,-1.542964 6.57661,-1.903577 16.93368,-1.921417 l 12.75,-0.02196 V 54.021277 38.040329 l -2.45895,-0.617156 c -1.35242,-0.339436 -9.78992,-0.68551 -18.75,-0.769052 -13.24297,-0.123476 -17.41366,0.19025 -22.29105,1.676773 -14.56756,4.439877 -23.51746,13.145144 -28.62503,27.842623 -1.88301,5.418528 -2.26494,9.097197 -2.65566,25.578708 l -0.45636,19.249995 H 112.38621 97.004736 v 18 18 h 15.500004 15.5 v 46.5 46.5 l -59.250004,-0.004 c -57.00117,-0.004 -59.3715198,-0.0778 -62.4514598,-1.95578 z"
       id="path2" />
  </g>
</svg>
