<?xml version="1.0" encoding="UTF-8" standalone="no"?>
<!-- Created with Inkscape (http://www.inkscape.org/) -->

<svg
   width="13.61913mm"
   height="13.619138mm"
   viewBox="0 0 13.61913 13.619138"
   version="1.1"
   id="svg1"
   xml:space="preserve"
   inkscape:version="1.3 (0e150ed6c4, 2023-07-21)"
   sodipodi:docname="heros_zodiac.svg"
   xmlns:inkscape="http://www.inkscape.org/namespaces/inkscape"
   xmlns:sodipodi="http://sodipodi.sourceforge.net/DTD/sodipodi-0.dtd"
   xmlns="http://www.w3.org/2000/svg"
   xmlns:svg="http://www.w3.org/2000/svg"><sodipodi:namedview
     id="namedview1"
     pagecolor="#ffffff"
     bordercolor="#000000"
     borderopacity="0.25"
     inkscape:showpageshadow="2"
     inkscape:pageopacity="0.0"
     inkscape:pagecheckerboard="0"
     inkscape:deskcolor="#d1d1d1"
     inkscape:document-units="mm"
     inkscape:zoom="1.3843855"
     inkscape:cx="1194.0316"
     inkscape:cy="366.58864"
     inkscape:window-width="2400"
     inkscape:window-height="1261"
     inkscape:window-x="2391"
     inkscape:window-y="-9"
     inkscape:window-maximized="1"
     inkscape:current-layer="layer2"><inkscape:page
       x="-1.7464454e-06"
       y="-6.2610394e-07"
       width="13.61913"
       height="13.619138"
       id="page2"
       margin="0"
       bleed="0" /></sodipodi:namedview><defs
     id="defs1" /><g
     inkscape:groupmode="layer"
     id="layer2"
     inkscape:label="Layer 2 Signs"
     style="font-variation-settings:normal;opacity:1;vector-effect:none;fill:#f9f9f9;fill-opacity:1;stroke-width:0.441512;stroke-linecap:butt;stroke-linejoin:miter;stroke-miterlimit:4;stroke-dasharray:none;stroke-dashoffset:0;stroke-opacity:1;-inkscape-stroke:none;stop-color:#000000;stop-opacity:1"
     transform="translate(-360.00079,-96.304642)"><rect
       style="display:inline;fill:#1a1a1a;stroke-width:0.799999;stroke-linecap:round;stroke-dashoffset:407.029;paint-order:markers stroke fill"
       id="rect87"
       width="204.30693"
       height="203.92471"
       x="216.94569"
       y="31.368456"
       transform="translate(-2.891632,-31.177336)" /><circle
       style="font-variation-settings:normal;display:inline;opacity:1;vector-effect:none;fill:#3a1414;fill-opacity:1;stroke:#ebd3c3;stroke-width:0.623;stroke-linecap:round;stroke-linejoin:miter;stroke-miterlimit:4;stroke-dasharray:none;stroke-dashoffset:407.029;stroke-opacity:1;-inkscape-stroke:none;paint-order:markers stroke fill;stop-color:#000000;stop-opacity:1"
       id="circle29"
       cx="134.29155"
       cy="-369.702"
       r="6.4980698"
       transform="rotate(90,14.142852,-17.034484)"
       inkscape:label="Cancer_Circle" /><path
       d="m 367.47582,137.22154 c -0.41762,-0.11035 -0.96958,-0.30445 -1.22658,-0.43133 -0.40573,-0.20032 -0.47204,-0.28838 -0.50352,-0.66876 -0.02,-0.24094 -0.005,-0.43806 0.0331,-0.43806 0.0381,0 0.32996,0.13206 0.6485,0.29348 0.93598,0.47429 2.00116,0.67195 3.29902,0.61216 0.6274,-0.0289 1.17222,-0.084 1.21069,-0.12249 0.0385,-0.0385 -0.0398,-0.20947 -0.17394,-0.37999 -0.81039,-1.03025 -0.0165,-2.5448 1.33388,-2.5448 0.87823,0 1.56928,0.7116 1.56928,1.61596 0,0.67641 -0.32662,1.11953 -1.1478,1.55721 -1.32482,0.70612 -3.4714,0.92179 -5.04262,0.50662 z m 5.15994,-1.49785 c 0.33049,-0.29909 0.27886,-0.90657 -0.10255,-1.2066 -0.76945,-0.60524 -1.7759,0.47602 -1.08562,1.1663 0.28566,0.28566 0.89425,0.3063 1.18817,0.0403 z m -5.97948,-0.84203 c -0.76605,-0.4096 -1.06389,-1.4171 -0.65351,-2.21068 0.36695,-0.70961 1.91112,-1.36028 3.55321,-1.49722 1.09067,-0.091 2.35771,0.0986 3.38103,0.5058 0.72084,0.28685 0.7301,0.2963 0.7301,0.74538 0,0.25016 -0.0215,0.45484 -0.0479,0.45484 -0.0264,0 -0.37316,-0.15382 -0.77069,-0.34181 -0.92405,-0.43701 -2.14251,-0.64331 -3.24771,-0.54989 -0.47314,0.04 -0.90632,0.1012 -0.96264,0.136 -0.0563,0.0348 4.4e-4,0.23222 0.12651,0.4387 0.28253,0.46336 0.29942,1.27283 0.0359,1.71897 -0.23815,0.40317 -0.94819,0.81755 -1.40085,0.81755 -0.185,0 -0.51953,-0.0979 -0.7434,-0.21764 z m 1.28681,-0.83371 c 0.32736,-0.32736 0.31341,-0.98222 -0.026,-1.21995 -0.88792,-0.62193 -1.83333,0.55031 -1.00744,1.24916 0.32013,0.27088 0.74536,0.25886 1.03343,-0.0292 z"
       style="font-variation-settings:normal;display:inline;opacity:1;vector-effect:none;fill:#deaa87;fill-opacity:1;stroke-width:0.441512;stroke-linecap:butt;stroke-linejoin:miter;stroke-miterlimit:4;stroke-dasharray:none;stroke-dashoffset:0;stroke-opacity:1;-inkscape-stroke:none;stop-color:#000000;stop-opacity:1"
       id="path30"
       inkscape:label="Cancer"
       transform="translate(-2.891632,-31.177336)" /></g></svg>
