<?xml version="1.0" encoding="UTF-8" standalone="no"?>
<!-- Created with Inkscape (http://www.inkscape.org/) -->

<svg
   width="13.619146mm"
   height="13.619138mm"
   viewBox="0 0 13.619146 13.619138"
   version="1.1"
   id="svg1"
   xml:space="preserve"
   inkscape:version="1.3 (0e150ed6c4, 2023-07-21)"
   sodipodi:docname="heros_zodiac.svg"
   xmlns:inkscape="http://www.inkscape.org/namespaces/inkscape"
   xmlns:sodipodi="http://sodipodi.sourceforge.net/DTD/sodipodi-0.dtd"
   xmlns="http://www.w3.org/2000/svg"
   xmlns:svg="http://www.w3.org/2000/svg"><sodipodi:namedview
     id="namedview1"
     pagecolor="#ffffff"
     bordercolor="#000000"
     borderopacity="0.25"
     inkscape:showpageshadow="2"
     inkscape:pageopacity="0.0"
     inkscape:pagecheckerboard="0"
     inkscape:deskcolor="#d1d1d1"
     inkscape:document-units="mm"
     inkscape:zoom="1.3843855"
     inkscape:cx="1194.0316"
     inkscape:cy="366.58864"
     inkscape:window-width="2400"
     inkscape:window-height="1261"
     inkscape:window-x="2391"
     inkscape:window-y="-9"
     inkscape:window-maximized="1"
     inkscape:current-layer="layer2"><inkscape:page
       x="-4.3841123e-08"
       y="-6.2610394e-07"
       width="13.619146"
       height="13.619138"
       id="page2"
       margin="0"
       bleed="0" /></sodipodi:namedview><defs
     id="defs1" /><g
     inkscape:groupmode="layer"
     id="layer2"
     inkscape:label="Layer 2 Signs"
     style="font-variation-settings:normal;opacity:1;vector-effect:none;fill:#f9f9f9;fill-opacity:1;stroke-width:0.441512;stroke-linecap:butt;stroke-linejoin:miter;stroke-miterlimit:4;stroke-dasharray:none;stroke-dashoffset:0;stroke-opacity:1;-inkscape-stroke:none;stop-color:#000000;stop-opacity:1"
     transform="translate(-256.41391,-96.304642)"><rect
       style="display:inline;fill:#1a1a1a;stroke-width:0.799999;stroke-linecap:round;stroke-dashoffset:407.029;paint-order:markers stroke fill"
       id="rect87"
       width="204.30693"
       height="203.92471"
       x="216.94569"
       y="31.368456"
       transform="translate(-2.891632,-31.177336)" /><circle
       style="font-variation-settings:normal;display:inline;opacity:1;vector-effect:none;fill:#3a1414;fill-opacity:1;stroke:#ebd3c3;stroke-width:0.623;stroke-linecap:round;stroke-linejoin:miter;stroke-miterlimit:4;stroke-dasharray:none;stroke-dashoffset:407.029;stroke-opacity:1;-inkscape-stroke:none;paint-order:markers stroke fill;stop-color:#000000;stop-opacity:1"
       id="circle38"
       cx="134.29155"
       cy="-266.11511"
       r="6.4980698"
       transform="rotate(90,14.142852,-17.034484)"
       inkscape:label="Capricorn_Circle" /><path
       d="m 264.12026,138.16181 c 0,-0.37789 0.027,-0.40886 0.35625,-0.40886 0.67963,0 1.35305,-0.5236 1.68009,-1.30632 0.16689,-0.39944 0.16211,-0.46345 -0.0742,-0.99135 -0.19147,-0.42778 -0.27434,-0.92241 -0.34246,-2.04409 -0.0869,-1.43117 -0.30126,-2.3168 -0.56073,-2.3168 -0.17097,0 -0.66602,0.78114 -0.8792,1.38729 -0.10991,0.31252 -0.17977,0.91401 -0.17977,1.54782 v 1.03667 h -0.39122 -0.39122 l -0.067,-1.50697 c -0.0848,-1.90769 -0.33997,-2.46481 -1.12875,-2.46481 -0.2091,0 -0.24131,-0.0721 -0.24131,-0.5406 v -0.54061 l 0.47549,0.076 c 0.66041,0.1056 0.9895,0.35336 1.28777,0.9695 l 0.25611,0.52906 0.1523,-0.33431 c 0.19162,-0.42062 0.48782,-0.76016 0.89701,-1.02828 0.30131,-0.19742 0.33583,-0.198 0.62205,-0.0105 0.54787,0.35898 0.83703,1.2384 0.92301,2.80714 0.10099,1.84261 0.13324,1.95115 0.43711,1.47122 0.50074,-0.79087 1.79106,-1.07795 2.54344,-0.56589 0.62552,0.42573 0.82899,0.78737 0.83438,1.48297 0.005,0.69751 -0.19852,1.0631 -0.83438,1.49586 -0.50317,0.34245 -1.4058,0.35534 -2.04549,0.0292 -0.25204,-0.1285 -0.46705,-0.23364 -0.47779,-0.23364 -0.0107,0 -0.0843,0.15638 -0.16349,0.34752 -0.32763,0.79098 -1.46064,1.51906 -2.36675,1.5209 -0.28939,4.4e-4 -0.32125,-0.0399 -0.32125,-0.40821 z m 4.95948,-1.88322 c 0.20692,-0.0794 0.53091,-0.63207 0.53091,-0.90562 0,-0.0946 -0.13609,-0.3338 -0.30242,-0.53148 -0.53811,-0.6395 -1.3448,-0.43451 -1.7998,0.45737 l -0.23002,0.45088 0.35737,0.30071 c 0.35477,0.29852 0.99638,0.39989 1.44396,0.22814 z"
       style="font-variation-settings:normal;opacity:1;vector-effect:none;fill:#deaa87;fill-opacity:1;stroke-width:0.441512;stroke-linecap:butt;stroke-linejoin:miter;stroke-miterlimit:4;stroke-dasharray:none;stroke-dashoffset:0;stroke-opacity:1;-inkscape-stroke:none;stop-color:#000000;stop-opacity:1"
       id="path39"
       inkscape:label="Capricorn"
       transform="translate(-2.891632,-31.177336)" /></g></svg>
