<?xml version="1.0" encoding="UTF-8" standalone="no"?>
<!-- Created with Inkscape (http://www.inkscape.org/) -->

<svg
   width="13.61913mm"
   height="13.619146mm"
   viewBox="0 0 13.61913 13.619146"
   version="1.1"
   id="svg1"
   xml:space="preserve"
   inkscape:version="1.3 (0e150ed6c4, 2023-07-21)"
   sodipodi:docname="heros_zodiac.svg"
   xmlns:inkscape="http://www.inkscape.org/namespaces/inkscape"
   xmlns:sodipodi="http://sodipodi.sourceforge.net/DTD/sodipodi-0.dtd"
   xmlns="http://www.w3.org/2000/svg"
   xmlns:svg="http://www.w3.org/2000/svg"><sodipodi:namedview
     id="namedview1"
     pagecolor="#ffffff"
     bordercolor="#000000"
     borderopacity="0.25"
     inkscape:showpageshadow="2"
     inkscape:pageopacity="0.0"
     inkscape:pagecheckerboard="0"
     inkscape:deskcolor="#d1d1d1"
     inkscape:document-units="mm"
     inkscape:zoom="1.3843855"
     inkscape:cx="1194.0316"
     inkscape:cy="366.58864"
     inkscape:window-width="2400"
     inkscape:window-height="1261"
     inkscape:window-x="2391"
     inkscape:window-y="-9"
     inkscape:window-maximized="1"
     inkscape:current-layer="layer2"><inkscape:page
       x="-1.1266169e-06"
       y="-1.5332068e-07"
       width="13.61913"
       height="13.619146"
       id="page2"
       margin="0"
       bleed="0" /></sodipodi:namedview><defs
     id="defs1" /><g
     inkscape:groupmode="layer"
     id="layer2"
     inkscape:label="Layer 2 Signs"
     style="font-variation-settings:normal;opacity:1;vector-effect:none;fill:#f9f9f9;fill-opacity:1;stroke-width:0.441512;stroke-linecap:butt;stroke-linejoin:miter;stroke-miterlimit:4;stroke-dasharray:none;stroke-dashoffset:0;stroke-opacity:1;-inkscape-stroke:none;stop-color:#000000;stop-opacity:1"
     transform="translate(-308.20734,-148.09807)"><rect
       style="display:inline;fill:#1a1a1a;stroke-width:0.799999;stroke-linecap:round;stroke-dashoffset:407.029;paint-order:markers stroke fill"
       id="rect87"
       width="204.30693"
       height="203.92471"
       x="216.94569"
       y="31.368456"
       transform="translate(-2.891632,-31.177336)" /><circle
       style="display:inline;fill:#3a1414;fill-opacity:1;stroke:#ebd3c3;stroke-width:0.623;stroke-linecap:round;stroke-dasharray:none;stroke-dashoffset:407.029;stroke-opacity:1;paint-order:markers stroke fill"
       id="circle32"
       cx="317.90854"
       cy="186.08498"
       r="6.4980698"
       transform="translate(-2.891632,-31.177336)"
       inkscape:label="Libra_Circle" /><path
       d="m 313.89786,189.71633 c -0.0428,-0.0428 -0.0779,-0.22682 -0.0779,-0.40886 v -0.33098 h 4.08859 4.08859 v 0.40886 0.40885 h -4.01072 c -2.20588,0 -4.04575,-0.0351 -4.08858,-0.0779 z m 0,-2.45316 c -0.0428,-0.0428 -0.0779,-0.22682 -0.0779,-0.40886 v -0.33098 h 0.93453 c 0.514,0 0.93454,-0.0152 0.93454,-0.0337 0,-0.0185 -0.10514,-0.23992 -0.23364,-0.49196 -0.60491,-1.18651 -0.0584,-2.6852 1.22658,-3.36381 0.61226,-0.32332 1.80624,-0.34697 2.40731,-0.0477 0.56333,0.28051 1.15246,0.86866 1.35644,1.35419 0.24616,0.58595 0.21085,1.5377 -0.0781,2.10399 l -0.24435,0.47897 h 0.93691 0.93691 v 0.41225 0.41225 l -1.54783,-0.0326 -1.54782,-0.0326 -0.0384,-0.33611 c -0.0294,-0.25757 0.0597,-0.43655 0.38134,-0.76596 0.23086,-0.23642 0.47082,-0.60794 0.53324,-0.82561 0.33505,-1.16824 -0.82904,-2.35824 -2.13547,-2.18301 -1.54661,0.20744 -2.15336,2.15837 -0.96257,3.09505 0.2174,0.17099 0.29438,0.34171 0.29438,0.6528 v 0.42125 h -1.49915 c -0.82453,0 -1.53419,-0.0351 -1.57702,-0.0779 z"
       style="display:inline;fill:#deaa87;stroke-width:0.441512"
       id="path33"
       inkscape:label="Libra"
       transform="translate(-2.891632,-31.177336)" /></g></svg>
