<?xml version="1.0" encoding="UTF-8" standalone="no"?>
<!-- Created with Inkscape (http://www.inkscape.org/) -->

<svg
   width="13.618355mm"
   height="13.618375mm"
   viewBox="0 0 13.618355 13.618375"
   version="1.1"
   id="svg1"
   xml:space="preserve"
   inkscape:version="1.3 (0e150ed6c4, 2023-07-21)"
   sodipodi:docname="heros_zodiac.svg"
   xmlns:inkscape="http://www.inkscape.org/namespaces/inkscape"
   xmlns:sodipodi="http://sodipodi.sourceforge.net/DTD/sodipodi-0.dtd"
   xmlns="http://www.w3.org/2000/svg"
   xmlns:svg="http://www.w3.org/2000/svg"><sodipodi:namedview
     id="namedview1"
     pagecolor="#ffffff"
     bordercolor="#000000"
     borderopacity="0.25"
     inkscape:showpageshadow="2"
     inkscape:pageopacity="0.0"
     inkscape:pagecheckerboard="0"
     inkscape:deskcolor="#d1d1d1"
     inkscape:document-units="mm"
     inkscape:zoom="1.3843855"
     inkscape:cx="1194.0316"
     inkscape:cy="366.58864"
     inkscape:window-width="2400"
     inkscape:window-height="1261"
     inkscape:window-x="2391"
     inkscape:window-y="-9"
     inkscape:window-maximized="1"
     inkscape:current-layer="layer2"><inkscape:page
       x="-1.5507924e-06"
       y="-4.6604418e-07"
       width="13.618355"
       height="13.618375"
       id="page2"
       margin="0"
       bleed="0" /></sodipodi:namedview><defs
     id="defs1" /><g
     inkscape:groupmode="layer"
     id="layer2"
     inkscape:label="Layer 2 Signs"
     style="font-variation-settings:normal;opacity:1;vector-effect:none;fill:#f9f9f9;fill-opacity:1;stroke-width:0.441512;stroke-linecap:butt;stroke-linejoin:miter;stroke-miterlimit:4;stroke-dasharray:none;stroke-dashoffset:0;stroke-opacity:1;-inkscape-stroke:none;stop-color:#000000;stop-opacity:1"
     transform="translate(-282.31103,-51.4506)"><rect
       style="display:inline;fill:#1a1a1a;stroke-width:0.799999;stroke-linecap:round;stroke-dashoffset:407.029;paint-order:markers stroke fill"
       id="rect87"
       width="204.30693"
       height="203.92471"
       x="216.94569"
       y="31.368456"
       transform="translate(-2.891632,-31.177336)" /><g
       id="g87"
       transform="matrix(0.44337083,0,0,0.44337083,180.76679,88.758117)"
       style="font-variation-settings:normal;opacity:1;vector-effect:none;fill:#f9f9f9;fill-opacity:1;stroke-width:0.441512;stroke-linecap:butt;stroke-linejoin:miter;stroke-miterlimit:4;stroke-dasharray:none;stroke-dashoffset:0;stroke-opacity:1;-inkscape-stroke:none;stop-color:#000000;stop-opacity:1"><path
         style="fill:#7e1919;fill-opacity:1"
         d="m 324.88164,116.12528 c -3.10356,-0.90519 -7.75047,-3.54185 -7.28943,-4.13603 0.18622,-0.23999 -0.31218,-0.7797 -1.10754,-1.19935 -0.91688,-0.48377 -3.68732,-0.51017 -7.57005,-0.0722 -4.51441,0.50928 -7.03602,0.42523 -9.5943,-0.31978 -1.90871,-0.55585 -3.5027,-1.2668 -3.5422,-1.57989 -0.0395,-0.31308 -0.30097,-0.50283 -0.58102,-0.42166 -0.28006,0.0812 -1.13792,0.18457 -1.90635,0.22976 -1.15223,0.0678 -1.23094,-0.0548 -0.44899,-0.6993 0.75114,-0.61908 0.63904,-0.71857 -0.53948,-0.47882 -0.81821,0.16645 -1.35152,0.47128 -1.18515,0.67741 0.57884,0.71713 -7.43215,4.63402 -9.2427,4.51913 -0.99798,-0.0633 -1.78063,0.15335 -1.73923,0.48152 0.12504,0.99102 -5.67023,1.38719 -7.84959,0.5366 -1.11957,-0.43695 -2.86322,-1.11709 -3.87479,-1.5114 -1.01156,-0.39432 -1.64064,-0.98767 -1.39794,-1.31857 0.24269,-0.33089 -0.23293,-0.29753 -1.05694,0.0741 -1.63775,0.73871 -4.54787,0.46395 -4.1571,-0.39249 0.13416,-0.29402 -0.59955,-0.49806 -1.63045,-0.45344 -1.0309,0.0446 -1.99645,-0.1714 -2.14566,-0.48005 -0.14921,-0.30865 -0.96366,-0.33603 -1.80988,-0.0609 -0.93009,0.30244 -1.99317,0.0722 -2.688,-0.58211 -1.05677,-0.99519 -1.01927,-1.03284 0.46541,-0.4672 0.88815,0.33838 1.86772,0.57211 2.17681,0.51939 0.3091,-0.0527 -0.26757,-0.42721 -1.28148,-0.8322 -1.01391,-0.405 -2.06096,-0.56082 -2.32677,-0.34628 -1.37004,1.10583 -18.08537,-10.95903 -20.86746,-15.06179 -0.96714,-1.42625 -3.1055,-3.85255 -4.75191,-5.39178 -2.92518,-2.73477 -7.64365,-9.94318 -9.14303,-13.96785 -0.41318,-1.10907 -2.10099,-3.71583 -3.75068,-5.79281 -2.5363,-3.19324 -3.22822,-4.7359 -4.48119,-9.99099 -1.83056,-7.67761 -3.31961,-19.92533 -2.83113,-23.28653 0.74883,-5.15265 1.05018,-9.36229 0.80775,-11.28369 -0.13748,-1.08964 0.0756,-3.408 0.47358,-5.15191 0.39795,-1.74391 1.01039,-5.5481 1.36096,-8.45375 0.36541,-3.02856 1.23106,-6.14097 2.02855,-7.29355 0.76512,-1.1058 2.61611,-3.76458 4.11332,-5.90841 1.60771,-2.30205 3.13857,-5.66456 3.73923,-8.21314 1.23948,-5.2591 2.77055,-7.49895 6.04115,-8.83778 2.72644,-1.11607 4.18151,-3.66401 5.00704,-8.767756 0.39108,-2.417748 1.03187,-3.336615 3.63243,-5.208692 1.78205,-1.282861 4.25808,-2.411924 5.68383,-2.591815 2.97979,-0.37597 6.41044,-2.212405 7.5876,-4.06166 1.48734,-2.336525 4.47921,-3.876844 9.51457,-4.898437 3.98828,-0.809155 5.61052,-1.539909 8.5408,-3.847286 4.56288,-3.592929 6.4412,-3.832284 15.90806,-2.02717 6.94679,1.324595 7.69204,1.635801 10.3439,4.319469 4.58389,4.638863 4.51662,4.621161 5.84738,1.538589 1.30713,-3.027845 6.94414,-8.355631 10.73586,-10.146927 2.6885,-1.270113 4.21634,-1.226854 11.41373,0.323163 2.77564,0.597757 6.50631,0.861522 8.54574,0.6042 5.0526,-0.637503 11.58013,0.935438 15.51248,3.738045 2.39739,1.708634 3.88753,2.264267 5.54711,2.068371 2.70155,-0.318891 6.19593,0.77132 11.201,3.494596 5.28529,2.875741 12.58921,8.940225 13.79893,11.457315 0.69117,1.438126 2.08165,2.606188 4.16384,3.497789 5.02152,2.15023 7.31827,4.404629 8.44494,8.289186 0.5502,1.89701 0.98033,4.4401 0.95583,5.65132 -0.0376,1.85824 0.43516,2.54917 3.02662,4.42355 1.68913,1.22174 3.69487,2.96682 4.45719,3.87796 1.65755,1.98112 2.54328,7.38271 2.19311,13.3745 -0.35581,6.08814 0.7446,16.30445 2.10313,19.52567 0.89099,2.11264 1.02564,3.24322 0.57801,4.85339 -0.32096,1.15453 -0.59279,3.74067 -0.60406,5.74697 -0.0227,4.0451 -1.46564,9.60712 -2.88575,11.12369 -0.50661,0.54102 -0.95768,2.14406 -1.00238,3.56231 -0.18178,5.76707 -0.8904,8.79982 -2.3458,10.03955 -0.94203,0.80244 -1.72471,2.71069 -2.11158,5.14827 -0.37979,2.39289 -0.92292,3.73259 -1.42108,3.50529 -0.49021,-0.22367 -0.56414,-0.0678 -0.18858,0.39745 0.77144,0.95576 -0.51366,3.10399 -1.56884,2.62253 -0.42763,-0.19512 -0.55106,-0.0742 -0.27428,0.2687 0.27677,0.34291 -0.0277,1.20825 -0.67667,1.92299 -0.64894,0.71474 -2.57777,3.79121 -4.28628,6.83661 -3.25981,5.81057 -5.06591,8.21824 -5.22414,6.96418 l -0.75183,-0.77342 c 1.10744,2.81431 0.79301,3.34161 -6.13988,10.29651 -4.97436,4.99015 -12.9602,10.81311 -19.30756,14.07831 -3.41024,1.7543 -15.78317,4.96805 -16.99863,4.41524 -0.37142,-0.16892 -0.40748,0.0247 -0.0801,0.43026 0.89112,1.10404 -6.21294,1.77286 -9.29202,0.87482 z m 4.99795,-0.6859 c -0.49294,-0.13058 -1.42959,-0.0241 -2.08143,0.23654 -0.65184,0.26068 -0.24853,0.36752 0.89626,0.23742 1.14479,-0.1301 1.67812,-0.34338 1.18517,-0.47396 z M 368.41963,97.0004 c -0.17332,-0.15114 -1.05042,0.72403 -1.94909,1.94481 l -1.63396,2.2196 1.94909,-1.9448 c 1.072,-1.06965 1.80728,-2.06847 1.63396,-2.21961 z M 224.35808,79.94876 c -0.57483,-1.087 -1.28852,-1.94566 -1.586,-1.90812 -0.69231,0.0874 -0.67825,0.15409 0.55583,2.63905 0.56945,1.14666 1.26935,1.89597 1.55533,1.66513 0.28599,-0.23083 0.0497,-1.30906 -0.52516,-2.39606 z"
         id="path5"
         sodipodi:nodetypes="csscsssssssssssscsssssssssssssssssssssssssssssssssssssssssssssssssssscssssccssscccsssssscsssssss" /><path
         style="fill:#000000"
         d="m 299.94965,57.61673 c -1.60622,-0.4592 -3.70007,-1.15441 -4.65302,-1.54492 -2.09596,-0.85889 -4.37977,-4.6079 -4.14715,-6.80776 0.20322,-1.9218 -0.29717,-2.51307 -3.59607,-4.24922 -2.30226,-1.21164 -2.5212,-1.56758 -2.44178,-3.96965 0.0817,-2.47165 -0.0418,-2.64796 -1.95203,-2.78552 -2.25009,-0.16202 -2.89238,-1.38404 -4.42308,-8.41527 -0.7245,-3.32795 -0.64677,-4.10916 0.60274,-6.058 0.78897,-1.23055 1.81136,-3.27579 2.27196,-4.54497 0.46061,-1.26918 1.2934,-2.55191 1.85064,-2.85051 0.60311,-0.32318 0.90593,-1.39282 0.74821,-2.64285 -0.28988,-2.2975 0.14025,-2.5516 2.87634,-1.69918 1.47894,0.46075 2.00668,0.32807 2.8093,-0.70634 0.54355,-0.70052 1.2094,-1.30158 1.47966,-1.33567 0.27025,-0.0341 0.72621,-1.04107 1.01324,-2.2377 0.68465,-2.85437 5.48923,-5.83226 10.39484,-6.44275 1.95063,-0.24276 3.93317,-0.26499 4.40565,-0.0494 0.47247,0.21558 1.85386,1.86327 3.06975,3.66155 1.21589,1.79827 2.80859,3.34791 3.53935,3.44365 1.85235,0.24268 2.59389,1.96488 1.51229,3.51224 -1.15685,1.65501 -1.07575,2.33589 0.197,1.65388 0.54657,-0.29288 2.10823,-0.46563 3.47036,-0.38389 2.14651,0.12881 2.51007,0.41374 2.72758,2.13769 0.13804,1.094 0.50351,2.06278 0.81218,2.15286 0.30866,0.0901 1.82432,1.68906 3.36813,3.55329 2.74759,3.31786 2.80595,3.48773 2.76057,8.03574 -0.0452,4.53468 -0.12138,4.713 -3.17201,7.42814 -2.67975,2.38504 -3.5102,2.76581 -5.82114,2.66902 -3.04559,-0.12756 -3.15143,0.0872 -1.18218,2.39904 1.36672,1.60448 1.35967,1.69813 -0.26298,3.49346 -0.91705,1.01463 -1.64165,2.04853 -1.61023,2.29756 0.0314,0.24903 -0.60533,1.47728 -1.41501,2.72945 -0.80968,1.25217 -1.42069,2.6845 -1.3578,3.18295 0.36837,2.91957 -8.82479,5.81697 -13.87531,4.37308 z"
         id="path6"
         sodipodi:nodetypes="ssssssssssssssssssssssssscssssssss" /><path
         style="display:inline;fill:#bfaf97;fill-opacity:1;stroke-width:0.870765"
         d="m 300.78606,84.60083 c -0.0653,-0.0457 -0.0806,-0.15458 -0.0324,-0.23061 0.0178,-0.0282 0.15491,-0.0624 0.36384,-0.0908 0.44384,-0.0604 0.53902,-0.1093 0.65031,-0.33369 0.11989,-0.24171 0.18349,-0.64818 0.21589,-1.37988 0.0149,-0.33649 0.0292,-3.13113 0.0316,-6.2103 l 0.005,-5.59848 -1.38465,0.0224 c -1.43811,0.0232 -1.8453,0.0489 -2.14473,0.13487 -0.40486,0.11631 -0.58464,0.28515 -0.8721,0.81906 -0.19544,0.36298 -0.26671,0.42399 -0.39245,0.33591 -0.0668,-0.0468 -0.0712,-0.0684 -0.0534,-0.26476 0.0224,-0.24697 0.31551,-1.57417 0.41381,-1.8735 l 0.0665,-0.2024 h 0.22167 c 0.12212,0 0.31403,0.021 0.42646,0.0468 0.58293,0.13322 -0.49484,0.12865 32.97831,0.13972 22.61207,0.007 32.18832,3.6e-4 32.49205,-0.0241 0.36771,-0.0297 0.74574,-0.0836 1.03429,-0.14729 0.11739,-0.0259 0.20288,0.087 0.20303,0.26834 1.9e-4,0.21891 0.0766,0.66163 0.20925,1.21136 0.0629,0.26104 0.11447,0.53105 0.11447,0.60003 0,0.16806 -0.0777,0.27605 -0.18934,0.26312 -0.0721,-0.008 -0.10675,-0.0523 -0.21547,-0.27369 -0.2404,-0.48946 -0.37957,-0.63071 -0.74531,-0.75655 -0.27727,-0.0954 -0.75047,-0.1852 -1.18161,-0.22426 -0.25282,-0.0229 -9.84125,-0.0407 -29.85168,-0.0557 l -29.47924,-0.0219 0.007,5.16263 c 0.007,6.59533 0.0278,7.40811 0.1955,7.85845 0.13077,0.35118 0.3057,0.43516 1.04539,0.50191 0.44069,0.0398 0.45354,0.0431 0.50176,0.12919 0.0463,0.0828 0.0448,0.093 -0.0242,0.16192 l -0.0736,0.0736 -2.23643,8.8e-4 c -1.81933,8.6e-4 -2.248,-0.007 -2.29845,-0.0423 z m -49.67624,-0.0616 c -0.37302,-0.0193 -1.10583,-0.10956 -1.54001,-0.18964 -1.67821,-0.30951 -3.25287,-1.15419 -4.15978,-2.2314 -0.88962,-1.05667 -1.47174,-2.4872 -1.62178,-3.98543 -0.0476,-0.47527 -0.0215,-1.48465 0.0503,-1.94325 0.36968,-2.36209 1.60788,-4.17082 3.49838,-5.11035 1.13059,-0.56187 2.3441,-0.80359 4.03148,-0.80303 1.00767,3.4e-4 1.67578,0.0694 2.8342,0.29288 0.26718,0.0516 0.65337,0.10998 0.85821,0.12985 0.20483,0.0199 0.44706,0.0437 0.53829,0.053 0.18533,0.0188 0.30395,0.1036 0.30333,0.21687 -2.2e-4,0.0393 -0.0218,0.29021 -0.048,0.55739 -0.0262,0.26717 -0.0564,0.87196 -0.0673,1.34397 -0.0108,0.47203 -0.0339,0.90489 -0.0512,0.96193 -0.0333,0.1099 -0.11621,0.1565 -0.21978,0.12362 -0.073,-0.0231 -0.11761,-0.14963 -0.14849,-0.42132 -0.0269,-0.23686 -0.1542,-0.68551 -0.24653,-0.86897 -0.3692,-0.73357 -1.35275,-1.25908 -2.84551,-1.52036 -0.35703,-0.0626 -0.52142,-0.0709 -1.39257,-0.0709 -1.0612,3e-5 -1.24836,0.0193 -1.90761,0.19668 -0.55155,0.14837 -1.15589,0.44599 -1.65477,0.81489 -1.25614,0.92886 -1.96119,2.73359 -1.90057,4.86494 0.0379,1.33091 0.37021,2.5293 1.01104,3.64556 0.49356,0.85971 1.03086,1.42873 1.89569,2.0076 1.22391,0.81921 2.73011,1.18075 4.23344,1.01616 0.89211,-0.0977 1.41556,-0.29848 1.56198,-0.59922 0.0618,-0.12696 0.0641,-0.20391 0.0635,-2.15361 -3.8e-4,-1.16815 -0.0143,-2.1162 -0.0329,-2.24515 -0.0823,-0.56954 -0.3133,-0.75921 -1.01313,-0.83201 -0.43396,-0.0451 -0.48235,-0.0656 -0.46937,-0.19921 0.0183,-0.18797 0.0559,-0.1934 1.14361,-0.16477 0.53436,0.0141 1.24117,0.0186 1.57069,0.01 0.32952,-0.008 0.82256,-0.0157 1.09564,-0.0157 0.45413,0 0.50044,0.006 0.54245,0.0628 0.12588,0.17228 0.0294,0.25837 -0.34318,0.30615 -0.36817,0.0472 -0.56064,0.13378 -0.67218,0.30234 -0.17104,0.25846 -0.17616,0.33376 -0.19878,2.92341 -0.0183,2.09887 -0.0274,2.41094 -0.0729,2.51269 -0.0429,0.096 -0.10186,0.14191 -0.33915,0.26419 -0.62661,0.3229 -1.55442,0.57619 -2.52181,0.68843 -0.41753,0.0484 -1.36036,0.0799 -1.76499,0.059 z m 79.26293,-1.5844 c -1.26223,-0.17688 -2.20332,-0.61344 -2.96269,-1.37436 -0.95694,-0.95888 -1.48996,-2.3183 -1.49161,-3.80407 -8.6e-4,-0.95295 0.18789,-1.71 0.64946,-2.60248 0.75013,-1.45045 2.05722,-2.37371 3.69564,-2.61041 0.67249,-0.0971 1.66502,-0.0513 2.332,0.10786 1.82936,0.43639 3.14641,1.71748 3.56243,3.46516 0.2493,1.04727 0.19882,2.24978 -0.13815,3.29076 -0.11518,0.3558 -0.42219,0.98867 -0.62879,1.29617 -0.76378,1.13675 -1.83123,1.84336 -3.23485,2.14131 -0.32896,0.0698 -0.49348,0.0847 -1.03858,0.0933 -0.35623,0.007 -0.69143,0.005 -0.74486,-0.004 z m 1.32515,-0.61558 c 0.0464,-0.0178 0.0512,-0.45149 0.0512,-4.58061 0,-2.52965 -0.0125,-4.56865 -0.0281,-4.57824 -0.0154,-0.009 -0.11013,-0.027 -0.2105,-0.0387 l -0.18251,-0.0214 v 4.61935 4.61936 h 0.15928 c 0.0875,0 0.18233,-0.009 0.21051,-0.0197 z m -0.7908,-4.61143 v -4.59871 l -0.13763,4.4e-4 c -0.0757,2.4e-4 -0.17044,0.009 -0.21051,0.02 l -0.0729,0.0195 v 4.54574 4.54573 l 0.0729,0.0156 c 0.0401,0.008 0.10201,0.0216 0.13763,0.0293 0.0356,0.007 0.0976,0.0154 0.13764,0.0174 l 0.0729,0.004 z m 1.49194,4.48477 c 0.54888,-0.14222 1.1079,-0.47609 1.50752,-0.90035 0.72787,-0.77272 1.08291,-1.88924 1.08315,-3.4063 1.8e-4,-1.18135 -0.18658,-1.98011 -0.65311,-2.7933 -0.3035,-0.52903 -0.79037,-1.0715 -1.22902,-1.36938 -0.18849,-0.12801 -0.70261,-0.3866 -0.86459,-0.43487 l -0.0729,-0.0217 v 4.48754 c 0,2.46815 0.008,4.48754 0.0196,4.48754 0.0108,0 0.10498,-0.0221 0.2093,-0.0491 z m -2.33395,-4.53233 c 0,-3.54673 -0.007,-4.44939 -0.0405,-4.43932 -0.80632,0.2518 -1.19677,0.47614 -1.64423,0.94472 -0.5302,0.55523 -0.90067,1.26903 -1.0736,2.06862 -0.083,0.38375 -0.11481,1.32566 -0.0619,1.83254 0.19714,1.88871 1.11687,3.32208 2.5266,3.93761 0.13477,0.0588 0.25595,0.10716 0.26931,0.10739 0.0133,2.1e-4 0.0243,-2.00299 0.0243,-4.45156 z m 27.75184,5.17965 c -0.60586,-0.0945 -1.18087,-0.28473 -1.29362,-0.42805 -0.0574,-0.0731 -0.0642,-0.13202 -0.0642,-0.55846 0,-0.53494 0.0565,-1.31505 0.1015,-1.40019 0.0486,-0.092 0.13601,-0.12271 0.22441,-0.0787 0.072,0.0358 0.0808,0.0648 0.10074,0.32985 0.0598,0.7961 0.50258,1.28715 1.3539,1.50138 1.62031,0.40772 3.02227,-0.51393 2.82271,-1.85567 -0.10367,-0.69705 -0.4653,-1.14422 -1.61685,-1.99932 -1.36703,-1.01511 -1.59621,-1.20818 -1.98008,-1.66808 -0.45733,-0.5479 -0.65048,-1.05587 -0.6496,-1.70844 5.4e-4,-0.40442 0.0519,-0.66756 0.18858,-0.96613 0.33493,-0.73166 1.12226,-1.24892 2.13284,-1.40126 0.47407,-0.0715 1.32036,-0.0628 1.85579,0.0188 0.24046,0.0366 0.55379,0.0813 0.69628,0.0993 0.31738,0.04 0.34911,0.0714 0.322,0.31868 -0.0108,0.0984 -0.0295,0.47192 -0.0414,0.82999 -0.0226,0.67233 -0.0411,0.75772 -0.16497,0.75772 -0.11114,0 -0.16328,-0.0821 -0.21621,-0.34005 -0.10649,-0.51919 -0.2735,-0.74164 -0.70587,-0.94014 -0.34419,-0.15802 -0.67697,-0.22144 -1.169,-0.22279 -0.47185,-8.7e-4 -0.70811,0.0463 -1.04427,0.21007 -0.53982,0.26307 -0.85945,0.87872 -0.75755,1.45916 0.10484,0.59717 0.53226,1.04636 1.96949,2.06982 1.49512,1.06469 2.04237,1.66615 2.28229,2.50837 0.10593,0.37189 0.10721,1.02457 0.003,1.38606 -0.2281,0.78899 -0.74583,1.38073 -1.5345,1.75385 -0.5712,0.27023 -1.13363,0.37512 -1.98688,0.37055 -0.3028,-0.002 -0.67547,-0.0224 -0.82814,-0.0462 z M 267.0293,82.7306 c -0.0772,-0.0382 -0.10972,-0.20197 -0.0448,-0.22571 0.0235,-0.008 0.16481,-0.029 0.31413,-0.0453 0.38302,-0.0419 0.54595,-0.18225 0.61723,-0.5318 0.0188,-0.0924 0.2599,-2.16439 0.53567,-4.60441 0.53699,-4.75124 0.51165,-4.58265 0.69298,-4.60956 0.0465,-0.007 0.10067,0.0233 0.15868,0.0885 0.0485,0.0545 0.98435,1.9047 2.07978,4.11173 1.09543,2.20703 2.00081,4.00346 2.01195,3.99207 0.0111,-0.0114 0.83283,-1.71851 1.82596,-3.7936 2.18682,-4.56924 2.06919,-4.33217 2.17294,-4.37945 0.0985,-0.0448 0.17155,-0.01 0.2308,0.11072 0.0219,0.0446 0.25183,1.97701 0.5109,4.29423 0.29296,2.62035 0.49521,4.30769 0.535,4.46325 0.15483,0.60539 0.40221,0.78613 1.17559,0.85889 0.41104,0.0387 0.49869,0.10069 0.34192,0.24189 -0.0637,0.0574 -0.11919,0.0612 -0.78534,0.0532 -0.8895,-0.0105 -1.84831,-0.0626 -1.98798,-0.10804 -0.13539,-0.044 -0.17804,-0.17491 -0.0822,-0.25226 0.0356,-0.0287 0.0751,-0.0813 0.0878,-0.11698 0.0237,-0.0666 -0.5928,-6.71812 -0.62646,-6.75883 -0.0103,-0.0125 -0.37476,0.71619 -0.80987,1.61926 -0.43511,0.90308 -1.19852,2.48722 -1.69647,3.52031 -0.49796,1.03309 -0.93352,1.91839 -0.96793,1.96732 -0.0892,0.12692 -0.20427,0.14775 -0.30313,0.0548 -0.21341,-0.20048 -1.82677,-3.37434 -3.20473,-6.30447 -0.19458,-0.41375 -0.36265,-0.74165 -0.3735,-0.72866 -0.0338,0.0404 -0.5216,5.76773 -0.52391,6.15088 -0.003,0.52435 0.0505,0.58401 0.59139,0.65708 0.15082,0.0204 0.29393,0.0563 0.31803,0.0798 0.0589,0.0575 0.0197,0.17004 -0.0697,0.20054 -0.11214,0.0382 -2.64673,0.0331 -2.72468,-0.006 z m 16.66009,0.01 c -0.38295,-0.0128 -1.21811,-0.0237 -1.8559,-0.0241 -0.73929,-5e-4 -1.18242,-0.013 -1.22254,-0.0345 -0.0364,-0.0195 -0.0629,-0.0676 -0.0629,-0.1143 0,-0.0938 0.099,-0.14369 0.28548,-0.14398 0.17051,-2.5e-4 0.36675,-0.06 0.45023,-0.13711 0.0926,-0.0855 0.16047,-0.29536 0.20706,-0.63995 0.0503,-0.37226 0.0793,-7.16162 0.0329,-7.70548 -0.0341,-0.39909 -0.0716,-0.51681 -0.2045,-0.64088 -0.0875,-0.0817 -0.39202,-0.16265 -0.71473,-0.19 -0.16733,-0.0142 -0.22639,-0.0326 -0.25087,-0.0784 -0.045,-0.084 -0.008,-0.1584 0.0928,-0.18429 0.047,-0.0121 1.27322,-0.023 2.72489,-0.0241 2.48644,-0.002 2.65111,-0.006 2.84153,-0.0627 0.30819,-0.0928 0.3519,-0.0219 0.25205,0.40864 -0.0263,0.11333 -0.0632,0.41663 -0.0821,0.674 -0.041,0.55986 -0.0705,0.6706 -0.18574,0.69954 -0.12637,0.0317 -0.18899,-0.0689 -0.21173,-0.34004 -0.0516,-0.61581 -0.35141,-0.73592 -1.86914,-0.74889 -0.40077,-0.004 -0.80154,-0.008 -0.8906,-0.0117 l -0.16192,-0.006 -0.008,1.85405 -0.008,1.85406 h 1.06173 c 1.03242,0 1.53406,-0.0311 1.6725,-0.1035 0.0372,-0.0194 0.12329,-0.0851 0.19132,-0.14602 0.13194,-0.118 0.23344,-0.1302 0.29296,-0.0352 0.0253,0.0403 0.0196,0.14265 -0.021,0.3779 -0.0306,0.17746 -0.0731,0.58071 -0.0944,0.89612 -0.0412,0.60813 -0.0581,0.66239 -0.20715,0.66239 -0.0925,0 -0.14252,-0.10002 -0.1428,-0.28548 -4.7e-4,-0.30688 -0.18307,-0.57838 -0.43775,-0.65086 -0.22475,-0.0639 -1.73432,-0.13294 -2.25984,-0.10328 -0.0557,0.004 -0.0579,0.0902 -0.0475,1.87354 0.01,1.70731 0.0159,1.88356 0.0692,2.0231 0.14295,0.37459 0.45951,0.47573 1.49405,0.47736 1.3537,0.002 1.69294,-0.16615 1.87762,-0.93133 0.0598,-0.24783 0.11219,-0.3304 0.20958,-0.3304 0.15744,0 0.17185,0.20376 0.0658,0.93026 -0.11204,0.76735 -0.168,0.88052 -0.46895,0.94824 -0.17055,0.0384 -1.13779,0.0354 -2.41269,-0.007 z M 256.84364,82.661 c -0.0744,-0.0521 -0.0872,-0.14847 -0.0259,-0.19547 0.0223,-0.0171 0.18069,-0.0468 0.35206,-0.0659 0.36979,-0.0415 0.50895,-0.10462 0.71445,-0.32431 0.25831,-0.27615 0.11318,0.0955 1.97176,-5.04953 0.80306,-2.22309 1.49206,-4.10604 1.5311,-4.18434 0.0882,-0.17691 0.1808,-0.21837 0.29209,-0.13082 0.0942,0.0741 0.11625,0.12895 1.1651,2.89617 1.13312,2.98953 1.94859,5.10285 2.13066,5.52168 0.39165,0.90094 0.71506,1.21314 1.32357,1.27773 0.30805,0.0327 0.32919,0.0421 0.31763,0.14116 -0.0197,0.16869 -0.0649,0.17392 -1.35396,0.15612 -0.7761,-0.0107 -1.21821,-0.0293 -1.28732,-0.054 -0.1341,-0.048 -0.13686,-0.13219 -0.008,-0.24693 0.0534,-0.0477 0.0972,-0.11406 0.0972,-0.14767 0,-0.0568 -0.59129,-1.67196 -1.04449,-2.85316 l -0.19654,-0.51228 -1.37927,0.007 c -0.7586,0.005 -1.39688,0.014 -1.41839,0.0214 -0.0215,0.007 -0.24554,0.6341 -0.49783,1.39279 -0.39782,1.19628 -0.46082,1.4141 -0.47455,1.64061 -0.0148,0.24347 -0.0106,0.26592 0.0606,0.33095 0.0848,0.0774 0.28088,0.14029 0.43815,0.14056 0.0564,1e-4 0.12565,0.009 0.15383,0.0199 0.0614,0.0236 0.0693,0.19196 0.0107,0.22835 -0.0223,0.0138 -0.66276,0.0275 -1.42332,0.0304 -1.15559,0.005 -1.39376,-0.003 -1.44924,-0.0413 z m 5.76295,-4.36869 c 0,-0.0205 -1.06915,-3.09791 -1.17448,-3.38052 -0.0618,-0.16571 -0.0678,-0.17181 -0.0956,-0.0972 -0.0244,0.0653 -1.03242,3.1795 -1.10814,3.42344 l -0.0226,0.0729 h 1.20043 c 0.66024,0 1.20044,-0.008 1.20044,-0.0186 z m 43.3336,4.3798 c -0.0537,-0.0537 -0.0406,-0.17807 0.0222,-0.21026 0.0311,-0.016 0.15009,-0.0384 0.26427,-0.0498 0.2784,-0.0278 0.39276,-0.0991 0.46326,-0.28899 0.13175,-0.35485 0.13878,-0.58724 0.13878,-4.58942 0,-4.17654 0.004,-4.08804 -0.17911,-4.27087 -0.10848,-0.10847 -0.39969,-0.19829 -0.64287,-0.19829 -0.20726,0 -0.29531,-0.0426 -0.29531,-0.14291 0,-0.15229 0.0331,-0.15693 1.04431,-0.14691 0.52106,0.006 1.22155,0.006 1.55664,0.002 0.65759,-0.008 0.71379,0.005 0.69588,0.15343 -0.0111,0.0923 -0.0737,0.1188 -0.35624,0.15065 -0.22596,0.0254 -0.37756,0.12067 -0.45997,0.28892 -0.0878,0.1793 -0.11198,0.64296 -0.11443,2.19698 l -0.002,1.31971 h 2.83797 2.83796 l -0.0173,-1.59498 c -0.0181,-1.68035 -0.0324,-1.84682 -0.17288,-2.00491 -0.10037,-0.11303 -0.32417,-0.19335 -0.59025,-0.21183 -0.34396,-0.0239 -0.47524,-0.11822 -0.34532,-0.24814 0.042,-0.0421 0.26266,-0.0486 1.61111,-0.0477 0.90796,5.7e-4 1.58617,0.0137 1.61913,0.0313 0.0732,0.0392 0.0733,0.17923 4e-5,0.21679 -0.0311,0.016 -0.15066,0.0384 -0.26554,0.0499 -0.40827,0.0407 -0.5297,0.17368 -0.58708,0.64282 -0.0461,0.37715 -0.0186,7.72751 0.03,8.03344 0.0484,0.30419 0.13772,0.49256 0.26465,0.55819 0.0573,0.0296 0.27376,0.0723 0.48537,0.0955 0.21,0.023 0.39786,0.0519 0.41745,0.064 0.0562,0.0348 0.0416,0.17472 -0.022,0.20871 -0.0345,0.0185 -0.71262,0.0301 -1.68618,0.0291 l -1.62853,-0.002 -0.0529,-0.0807 c -0.0503,-0.0769 -0.0493,-0.0836 0.0219,-0.14132 0.0412,-0.0334 0.11621,-0.0606 0.16679,-0.0606 0.0506,0 0.16523,-0.0157 0.25474,-0.0349 0.42632,-0.0915 0.47319,-0.41823 0.48386,-3.37364 l 0.006,-1.51401 h -2.83838 -2.83838 l 0.0173,1.91883 c 0.0184,2.03308 0.0428,2.43577 0.16256,2.67819 0.10822,0.21905 0.18152,0.25591 0.58933,0.29638 0.19593,0.0194 0.38806,0.0413 0.42695,0.0485 0.0956,0.0178 0.12801,0.13089 0.0592,0.20692 -0.0512,0.0566 -0.14047,0.0597 -1.70104,0.0581 -1.12009,-8.8e-4 -1.65802,-0.0126 -1.68148,-0.0362 z m 11.06266,0.006 c -0.0709,-0.0396 -0.069,-0.17872 0.003,-0.2157 0.0311,-0.016 0.15692,-0.039 0.27946,-0.051 0.2904,-0.0285 0.39967,-0.0876 0.47451,-0.25687 0.15757,-0.35623 0.18291,-1.0153 0.1832,-4.76589 2.4e-4,-3.27236 -0.0146,-3.7984 -0.11184,-3.98653 -0.0378,-0.073 -0.10554,-0.15686 -0.15062,-0.18641 -0.11855,-0.0777 -0.42523,-0.15049 -0.63382,-0.15049 -0.26513,0 -0.39906,-0.11489 -0.27664,-0.23732 0.0408,-0.0408 0.34033,-0.0479 2.11314,-0.0494 2.23782,-0.002 2.50807,0.0133 3.07385,0.17382 0.7958,0.22575 1.33014,0.64554 1.64835,1.29499 0.18754,0.38272 0.25475,0.71117 0.22533,1.10085 -0.0664,0.87834 -0.42709,1.58645 -1.22415,2.40305 -0.28394,0.2909 -0.40897,0.44081 -0.39165,0.46959 0.045,0.0749 1.30966,1.57611 1.79373,2.12928 1.39629,1.59561 1.9884,2.00345 2.99609,2.06371 0.2206,0.0132 0.34193,0.0351 0.38053,0.0687 0.0761,0.0662 0.0714,0.12247 -0.0153,0.18318 -0.0611,0.0427 -0.21195,0.0504 -0.99585,0.0502 -0.98601,-1.3e-4 -1.31995,-0.0324 -1.65726,-0.15966 -0.21639,-0.0817 -0.52619,-0.27671 -0.76938,-0.4843 -0.30504,-0.26039 -1.03404,-1.1275 -2.23195,-2.65484 -0.37604,-0.47945 -0.66017,-0.81262 -0.71202,-0.83495 -0.0567,-0.0243 -0.38355,-0.0388 -0.95304,-0.042 l -0.86676,-0.006 8.6e-4,0.88398 c 0.002,1.0513 0.0458,2.16825 0.0971,2.43849 0.0448,0.2361 0.13394,0.38926 0.2664,0.45775 0.0549,0.0283 0.2526,0.0653 0.44217,0.0825 0.45837,0.0416 0.53492,0.0619 0.54696,0.14495 0.006,0.0373 -0.0128,0.0904 -0.0405,0.11807 -0.0443,0.0443 -0.25422,0.0502 -1.74533,0.0487 -0.9808,-8.7e-4 -1.71764,-0.0143 -1.74877,-0.0317 z m 4.42586,-4.7504 c 0.61644,-0.21666 1.00242,-0.8507 1.09124,-1.79252 0.11227,-1.19062 -0.36509,-2.20979 -1.22053,-2.60582 -0.31228,-0.14457 -0.57292,-0.20361 -0.99849,-0.22618 -0.39611,-0.021 -0.99952,0.0284 -1.07101,0.0877 -0.0714,0.0593 -0.0692,4.34261 0.003,4.41407 0.21726,0.21727 1.6929,0.29969 2.19647,0.1227 z m 25.21509,4.69327 c -0.39422,-0.26158 -3.19421,-2.84154 -5.1791,-4.77213 -0.56107,-0.54572 -1.45006,-1.41371 -1.9755,-1.92887 l -0.95537,-0.93664 -0.0103,0.1663 c -0.016,0.25823 0.15242,5.75651 0.18871,6.16005 0.0425,0.47274 0.10556,0.67776 0.2541,0.82621 0.12622,0.12616 0.23471,0.15478 0.81433,0.21487 l 0.2429,0.0252 0.01,0.10349 c 0.009,0.0971 0.002,0.10582 -0.12953,0.14153 -0.0955,0.026 -0.28788,0.0313 -0.60914,0.0169 -0.59154,-0.0267 -1.70148,-0.0265 -2.10505,2.6e-4 -0.45714,0.0303 -0.67192,-0.0473 -0.58421,-0.21122 0.0241,-0.0451 0.10228,-0.0658 0.35786,-0.0949 0.47684,-0.0543 0.57185,-0.12014 0.67565,-0.46873 0.0435,-0.1458 0.0521,-0.73074 0.0675,-4.52327 0.0153,-3.79332 0.024,-4.36831 0.0665,-4.45257 0.0523,-0.10369 0.12001,-0.13123 0.24526,-0.0998 0.0434,0.0109 0.75582,0.67489 1.59278,1.48448 0.83288,0.80564 2.05337,1.98171 2.71221,2.61348 1.10082,1.05559 1.80297,1.7389 3.31067,3.2218 0.30705,0.302 0.58167,0.56219 0.61024,0.57819 0.0471,0.0264 0.0501,-0.0204 0.0323,-0.50049 -0.0109,-0.29125 -0.0339,-1.1635 -0.0511,-1.93832 -0.0173,-0.77481 -0.0387,-1.67108 -0.0477,-1.99169 -0.009,-0.32061 -0.0249,-0.93269 -0.0353,-1.36018 -0.0256,-1.0488 -0.0611,-1.26933 -0.23344,-1.45001 -0.11132,-0.11668 -0.33122,-0.17982 -0.71654,-0.20573 -0.17101,-0.0115 -0.33733,-0.0345 -0.36958,-0.0511 -0.0787,-0.0405 -0.0584,-0.16005 0.0352,-0.20652 0.0854,-0.0424 3.13738,-0.0448 3.20526,-0.003 0.0598,0.0373 0.0491,0.1766 -0.0162,0.2101 -0.0311,0.016 -0.15544,0.0379 -0.27614,0.0486 -0.4194,0.0373 -0.57233,0.15716 -0.6372,0.49949 -0.016,0.0846 -0.0379,2.02648 -0.0486,4.31531 -0.0107,2.28882 -0.0274,4.24823 -0.0371,4.35422 -0.01,0.10601 -0.0317,0.21895 -0.0489,0.251 -0.0464,0.0867 -0.19182,0.0718 -0.35528,-0.0367 z m 4.79556,0.0589 c -0.31171,-0.0131 -0.98261,-0.0154 -1.49092,-0.006 -1.01613,0.0204 -1.07976,0.0116 -1.06137,-0.14657 0.0117,-0.10134 0.0731,-0.12554 0.38943,-0.15388 0.38834,-0.0348 0.49065,-0.16677 0.58485,-0.75449 0.0587,-0.36609 0.0572,-7.80087 -0.002,-7.99453 -0.0927,-0.30515 -0.30177,-0.42119 -0.83126,-0.46124 -0.16324,-0.0124 -0.31421,-0.0332 -0.33551,-0.0464 -0.0509,-0.0315 -0.0498,-0.17107 0.002,-0.20441 0.0223,-0.0144 1.30108,-0.0271 2.84181,-0.0284 2.07264,-0.002 2.83924,-0.0124 2.94705,-0.0412 0.44785,-0.11962 0.48955,-0.0911 0.40768,0.27916 -0.0304,0.13751 -0.0761,0.4759 -0.10152,0.75198 -0.0255,0.27609 -0.0626,0.54157 -0.0825,0.58996 -0.0429,0.1039 -0.13066,0.13989 -0.22203,0.091 -0.0706,-0.0378 -0.0851,-0.0838 -0.11184,-0.35312 -0.0315,-0.31827 -0.18926,-0.51059 -0.48391,-0.58994 -0.30389,-0.0819 -0.51107,-0.0976 -1.51673,-0.11582 l -1.05837,-0.0191 -0.0196,0.10947 c -0.0108,0.0601 -0.0155,0.88914 -0.0103,1.84207 l 0.009,1.73262 0.77725,8.7e-4 c 0.42748,5.8e-4 1.03228,-0.008 1.34399,-0.0204 0.61499,-0.0232 0.73132,-0.051 0.92455,-0.22065 0.1333,-0.11705 0.22999,-0.14983 0.29145,-0.0988 0.0597,0.0495 0.0593,0.17175 -0.002,0.51688 -0.0268,0.1514 -0.0661,0.51406 -0.0874,0.8059 -0.0443,0.60675 -0.0765,0.69164 -0.24108,0.63384 -0.086,-0.0302 -0.0942,-0.0485 -0.11735,-0.25844 -0.0492,-0.44664 -0.21624,-0.62721 -0.63931,-0.6912 -0.22451,-0.0339 -0.88974,-0.0636 -1.73228,-0.077 l -0.51817,-0.008 -0.009,1.65165 c -0.006,0.90841 0.005,1.76571 0.0212,1.90512 0.0791,0.66568 0.3534,0.79941 1.63853,0.79878 0.8737,-4.1e-4 1.30116,-0.0683 1.57704,-0.25033 0.19607,-0.12938 0.3013,-0.32613 0.41515,-0.77617 0.0616,-0.24359 0.23038,-0.3135 0.31736,-0.13146 0.0353,0.0739 0.0336,0.15705 -0.0104,0.50197 -0.0729,0.57135 -0.13027,0.85731 -0.20648,1.02961 -0.10919,0.24682 -0.0912,0.24425 -1.66316,0.23643 -0.75229,-0.004 -1.62283,-0.0174 -1.93455,-0.0305 z M 291.138,81.61399 c -1.33856,-0.15608 -2.27723,-1.01191 -2.60956,-2.37929 -0.39852,-1.63972 0.41575,-3.38658 1.83348,-3.9333 0.36721,-0.14162 0.61208,-0.19363 1.02174,-0.21703 1.48601,-0.0849 2.69376,0.65179 3.15405,1.92386 0.13311,0.36786 0.19505,0.75096 0.19505,1.20633 0,0.64653 -0.11991,1.17423 -0.38807,1.70784 -0.36976,0.7358 -0.98029,1.27643 -1.72906,1.5311 -0.45917,0.15618 -1.00558,0.21552 -1.47763,0.16049 z m 0.86631,-0.54908 0.10525,-4.4e-4 v -2.7027 -2.70271 l -0.12145,-0.0205 c -0.0668,-0.0112 -0.14694,-0.0275 -0.17812,-0.0361 -0.0537,-0.0147 -0.0567,0.13148 -0.0567,2.74317 v 2.7587 l 0.0729,-0.0195 c 0.0401,-0.0107 0.12023,-0.0197 0.17812,-0.0199 z m -0.58555,-2.73699 v -2.73656 l -0.11609,4.4e-4 c -0.0639,2.4e-4 -0.14897,0.009 -0.18914,0.02 l -0.0731,0.0196 0.008,2.69079 0.008,2.69079 0.081,0.0226 c 0.0445,0.0124 0.12591,0.024 0.18086,0.0257 l 0.0999,0.004 z m 1.53624,2.41 c 0.56305,-0.35944 0.90256,-1.20483 0.90317,-2.24893 4e-4,-0.67053 -0.10792,-1.18025 -0.36111,-1.69938 -0.13602,-0.27888 -0.20727,-0.381 -0.39615,-0.56772 -0.13089,-0.12941 -0.31767,-0.27351 -0.43271,-0.33385 l -0.2024,-0.10616 -0.002,0.0991 c -9.3e-4,0.0545 -0.002,1.21391 -0.002,2.57653 0,1.3626 7.5e-4,2.48454 0.002,2.49318 0.003,0.0294 0.34103,-0.11707 0.49087,-0.21272 z m -2.23801,-2.42838 v -2.59301 l -0.0729,0.022 c -0.19153,0.0579 -0.41989,0.21428 -0.65895,0.45115 -0.38924,0.38568 -0.57873,0.8031 -0.66045,1.4548 -0.13104,1.04506 0.17961,2.204 0.75815,2.82844 0.14797,0.15971 0.53061,0.42957 0.60909,0.42957 0.0138,0 0.025,-1.16685 0.025,-2.593 z m 4.14052,3.12157 c -0.0651,-0.0784 0.01,-0.1535 0.1767,-0.17751 0.18923,-0.0271 0.21191,-0.0423 0.2767,-0.18498 0.0479,-0.10552 0.0544,-0.3917 0.0634,-2.80548 0.007,-1.88501 -5.9e-4,-2.7242 -0.0255,-2.80923 -0.0428,-0.14602 -0.13901,-0.20309 -0.39649,-0.23526 -0.10186,-0.0127 -0.20047,-0.0415 -0.21912,-0.064 -0.0491,-0.0591 -0.005,-0.14576 0.0759,-0.14902 0.0382,-0.002 0.81993,-0.007 1.73724,-0.0121 0.91731,-0.006 1.72613,-0.0148 1.79738,-0.0215 0.12932,-0.0122 0.12954,-0.012 0.12605,0.10115 -0.007,0.2327 -0.0807,0.82849 -0.11124,0.90089 -0.0221,0.0524 -0.0533,0.072 -0.10348,0.0648 -0.0587,-0.008 -0.0818,-0.0485 -0.12611,-0.21833 -0.0924,-0.3543 -0.17793,-0.3824 -1.21827,-0.40053 l -0.72057,-0.0125 v 1.22742 1.22743 l 0.83668,-0.0101 0.83669,-0.0101 0.11981,-0.10525 c 0.13524,-0.11882 0.15807,-0.12492 0.21418,-0.0573 0.0305,0.0367 0.0317,0.0954 0.005,0.251 -0.0192,0.11168 -0.0447,0.35971 -0.0568,0.55118 -0.0152,0.24123 -0.0363,0.35999 -0.0685,0.38674 -0.0751,0.0624 -0.1503,-0.0116 -0.19117,-0.18785 -0.0553,-0.2385 -0.0741,-0.26917 -0.20701,-0.33696 -0.10442,-0.0533 -0.22321,-0.0656 -0.80869,-0.0845 l -0.6863,-0.022 0.0123,1.3408 c 0.0106,1.15018 0.0199,1.35768 0.0651,1.45962 0.0639,0.14416 0.13755,0.18698 0.35871,0.20874 0.28834,0.0284 0.31483,0.0388 0.31483,0.12426 0,0.0462 -0.0231,0.0852 -0.0567,0.0955 -0.0312,0.009 -0.4896,0.0164 -1.01872,0.0153 -0.81078,-0.002 -0.96834,-0.01 -1.00207,-0.0503 z"
         id="path7" /><path
         style="fill:#73532b;fill-opacity:1;stroke-width:0.325445"
         d="m 306.39891,43.41454 c -1.33024,-3.12084 -1.94722,-4.47708 -1.98855,-4.37119 -0.0329,0.0844 -0.22008,1.31597 -0.41581,2.73674 -0.19573,1.42077 -0.38231,2.67123 -0.41464,2.77879 -0.0359,0.11937 -0.22061,-0.92064 -0.47416,-2.66932 -0.22847,-1.5757 -0.44131,-2.95159 -0.47298,-3.05755 -0.0439,-0.14704 -0.5219,0.87193 -2.01943,4.30538 -1.07901,2.4739 -1.99818,4.55613 -2.04261,4.62716 -0.0558,0.0892 -0.0671,0.0358 -0.0367,-0.17221 0.10082,-0.68974 1.14927,-9.50757 1.13216,-9.52183 -0.0102,-0.009 -0.82704,1.00875 -1.81508,2.26067 -0.98804,1.25191 -1.80976,2.26289 -1.82603,2.24661 -0.0163,-0.0163 0.45421,-1.26362 1.04554,-2.77188 0.59133,-1.50826 1.06153,-2.75589 1.0449,-2.77253 -0.0166,-0.0166 -1.82369,1.28675 -4.01568,2.89641 -2.192,1.60965 -4.0053,2.92665 -4.02957,2.92665 -0.0243,0 0.0515,-0.12594 0.16843,-0.27985 0.6889,-0.90699 5.55687,-7.44495 5.60899,-7.5332 0.0375,-0.0634 -0.10405,-0.0347 -0.35048,0.0711 -0.45016,0.19338 -4.80998,1.96535 -5.02009,2.04033 -0.071,0.0253 0.9476,-0.81754 2.26365,-1.87308 1.31604,-1.05556 2.37801,-1.93397 2.35993,-1.95205 -0.0181,-0.0181 -2.19755,0.20128 -4.84328,0.48747 -2.64573,0.28618 -4.86114,0.50936 -4.92313,0.49596 -0.062,-0.0134 1.91907,-0.87679 4.40238,-1.91861 2.48331,-1.04182 4.50673,-1.9026 4.49649,-1.91283 -0.0244,-0.0244 -5.61445,-0.8858 -5.74841,-0.8858 -0.42515,0 0.38061,-0.1442 2.90306,-0.51951 1.6066,-0.23904 2.95983,-0.44689 3.00719,-0.46189 0.0474,-0.015 -0.0495,-0.0858 -0.21527,-0.15732 -1.48592,-0.64122 -8.61579,-3.81363 -8.78276,-3.90786 -0.21252,-0.11994 -0.21135,-0.12097 0.0859,-0.0754 0.72044,0.11041 9.51575,1.1458 9.53866,1.12289 0.014,-0.0139 -1.0032,-0.8309 -2.26033,-1.81542 -1.25713,-0.98453 -2.27314,-1.80261 -2.25779,-1.81796 0.0154,-0.0153 1.05222,0.38221 2.30416,0.88345 3.03177,1.21384 3.37133,1.33887 3.2972,1.21408 -0.0343,-0.0578 -1.37062,-1.8972 -2.96952,-4.08756 -1.5989,-2.19035 -2.88837,-3.98247 -2.8655,-3.98247 0.032,0 7.24927,5.46316 7.76757,5.87969 0.0714,0.0574 0.0508,-0.0633 -0.0568,-0.33316 -0.84684,-2.12325 -1.99254,-5.04917 -1.99254,-5.08863 0,-0.0271 0.85743,1.02288 1.90538,2.33306 1.04796,1.31018 1.9162,2.37096 1.92942,2.35729 0.0132,-0.0137 -0.20537,-2.15601 -0.48574,-4.76076 -0.28038,-2.60475 -0.49957,-4.8315 -0.48711,-4.94835 0.0142,-0.13302 0.72816,1.46868 1.90966,4.28402 1.03785,2.47305 1.8951,4.48669 1.90497,4.47476 0.01,-0.012 0.20515,-1.33197 0.43394,-2.93339 0.22878,-1.60141 0.44039,-2.84136 0.47024,-2.75543 0.0298,0.0859 0.24392,1.46288 0.47571,3.05989 0.23181,1.597 0.44525,2.87569 0.47432,2.84154 0.0291,-0.0342 0.89701,-1.98015 1.92874,-4.32441 1.03172,-2.34428 1.947,-4.39794 2.03394,-4.5637 l 0.15808,-0.30137 -0.0473,0.38748 c -0.69057,5.66368 -1.12624,9.34825 -1.10784,9.36923 0.0128,0.0146 0.78798,-0.9541 1.72256,-2.15269 1.99897,-2.56367 1.99672,-2.56108 1.81274,-2.09315 -1.63575,4.16037 -2.09308,5.34288 -2.07426,5.36351 0.0125,0.0137 1.81974,-1.28675 4.01616,-2.88981 2.19642,-1.60307 4.04574,-2.94602 4.10959,-2.98434 0.0638,-0.0383 -1.22915,1.72311 -2.87335,3.9143 -1.67533,2.23268 -2.91868,3.96357 -2.82847,3.93756 0.0885,-0.0256 1.29577,-0.51561 2.68276,-1.08907 1.38699,-0.57347 2.54464,-1.04266 2.57256,-1.04266 0.028,0 -1.02121,0.85743 -2.33139,1.90539 -1.31018,1.04796 -2.37096,1.91619 -2.35729,1.9294 0.0137,0.0132 2.15602,-0.20536 4.76076,-0.48573 2.60475,-0.28037 4.83278,-0.49957 4.95118,-0.48711 0.13643,0.0143 -1.43786,0.71641 -4.29866,1.91702 -2.48267,1.0419 -4.45882,1.90345 -4.39148,1.91457 0.0674,0.0111 1.37907,0.21506 2.91492,0.45322 2.4274,0.37639 3.18035,0.5168 2.77145,0.5168 -0.1617,0 -5.89421,0.86129 -5.9228,0.88988 -0.0139,0.0139 2.03215,0.93334 4.54671,2.04325 2.51457,1.10992 4.49965,2.02793 4.41131,2.04003 -0.0883,0.012 -2.2724,-0.24442 -4.85347,-0.57 -2.58107,-0.3256 -4.70468,-0.58198 -4.71914,-0.56974 -0.0144,0.0122 1.0016,0.84781 2.25791,1.85684 1.25631,1.00903 2.27423,1.84458 2.26202,1.85678 -0.0122,0.0122 -1.20263,-0.46392 -2.6454,-1.05805 -3.32099,-1.36757 -3.0337,-1.25789 -2.95614,-1.12855 0.0354,0.0591 1.37264,1.89948 2.97161,4.08984 1.59897,2.19036 2.88711,3.98246 2.86252,3.98246 -0.0246,0 -1.75677,-1.29024 -3.84929,-2.86719 -3.89203,-2.9331 -4.08114,-3.07197 -3.99928,-2.93683 0.0502,0.0829 1.57894,4.00078 1.92871,4.94295 0.16772,0.45179 0.17831,0.52354 0.0549,0.37214 -0.0841,-0.10316 -0.94722,-1.19454 -1.91808,-2.42529 -0.97086,-1.23074 -1.77066,-2.23129 -1.77733,-2.22344 -0.007,0.008 0.23095,2.26168 0.52804,5.0085 0.29708,2.74683 0.53124,5.00448 0.52035,5.017 -0.0109,0.0125 -0.88768,-2.01335 -1.94843,-4.50194 z m -1.41273,-5.07297 c 1.50605,-0.26925 2.72103,-0.79341 3.90225,-1.68349 4.18345,-3.15233 4.72104,-9.40336 1.13583,-13.20738 -0.30739,-0.32615 -0.77919,-0.76252 -1.04844,-0.9697 -2.42168,-1.86344 -5.90121,-2.32406 -8.76189,-1.1599 -2.79318,1.1367 -4.7782,3.48713 -5.40753,6.40302 -0.23899,1.10729 -0.20028,2.87671 0.0866,3.95608 0.44093,1.65927 1.28574,3.09847 2.50184,4.26208 0.77298,0.73963 1.33913,1.14062 2.25273,1.59557 1.6532,0.82324 3.59463,1.11551 5.33865,0.80372 z m -2.02351,-1.30785 c -2.47233,-0.26993 -4.41503,-1.45394 -5.75598,-3.50806 -1.93177,-2.95918 -1.3819,-7.11396 1.26228,-9.53769 1.44558,-1.32506 3.16243,-1.98659 5.1395,-1.98034 3.52059,0.0112 6.49223,2.41193 7.32882,5.92099 0.20689,0.86778 0.18922,2.37731 -0.0388,3.32134 -0.67809,2.8065 -2.8901,4.98556 -5.69696,5.61209 -0.60885,0.13591 -1.75875,0.22408 -2.23879,0.17167 z"
         id="path8" /><text
         xml:space="preserve"
         style="font-style:normal;font-variant:normal;font-weight:normal;font-stretch:normal;font-size:7.01392px;font-family:'Franklin Gothic Medium';-inkscape-font-specification:'Franklin Gothic Medium, Normal';font-variant-ligatures:normal;font-variant-caps:normal;font-variant-numeric:normal;font-variant-east-asian:normal;text-align:end;letter-spacing:0px;text-anchor:end;fill:#af8c8c;fill-opacity:1;stroke-width:0.141245;stroke-dashoffset:407.029;paint-order:stroke fill markers"
         x="357.66937"
         y="66.201591"
         id="text8"><tspan
           sodipodi:role="line"
           id="tspan8"
           style="font-style:normal;font-variant:normal;font-weight:normal;font-stretch:normal;font-size:7.01392px;font-family:'Franklin Gothic Medium';-inkscape-font-specification:'Franklin Gothic Medium, Normal';font-variant-ligatures:normal;font-variant-caps:normal;font-variant-numeric:normal;font-variant-east-asian:normal;stroke-width:0.141245"
           x="357.66937"
           y="66.201591">AN ANALYSIS OF</tspan></text><text
         xml:space="preserve"
         style="font-style:normal;font-variant:normal;font-weight:normal;font-stretch:normal;font-size:21.5525px;font-family:Impact;-inkscape-font-specification:'Impact, Normal';font-variant-ligatures:normal;font-variant-caps:normal;font-variant-numeric:normal;font-variant-east-asian:normal;text-align:end;letter-spacing:3.22336px;text-anchor:end;fill:#ded8d8;fill-opacity:1;stroke-width:0.306366;stroke-dashoffset:407.029;paint-order:stroke fill markers"
         x="352.22845"
         y="43.5457"
         id="text9-3"
         transform="scale(1.1130464,0.89843514)"><tspan
           sodipodi:role="line"
           id="tspan9"
           style="font-style:normal;font-variant:normal;font-weight:normal;font-stretch:normal;font-size:21.5525px;font-family:Impact;-inkscape-font-specification:'Impact, Normal';font-variant-ligatures:normal;font-variant-caps:normal;font-variant-numeric:normal;font-variant-east-asian:normal;letter-spacing:3.22336px;fill:#ded8d8;fill-opacity:1;stroke-width:0.306366"
           x="355.45181"
           y="43.5457">REMEMBRANCE</tspan></text></g><circle
       style="font-variation-settings:normal;display:inline;opacity:1;vector-effect:none;fill:#3a1414;fill-opacity:1;stroke:#ebd3c3;stroke-width:0.623;stroke-linecap:round;stroke-linejoin:miter;stroke-miterlimit:4;stroke-dasharray:none;stroke-dashoffset:407.029;stroke-opacity:1;-inkscape-stroke:none;paint-order:markers stroke fill;stop-color:#000000;stop-opacity:1"
       id="circle40"
       cx="-208.17111"
       cy="-223.46074"
       r="6.4980698"
       transform="rotate(150,2.7311551,-15.976073)"
       inkscape:label="Pisces_Circle" /><path
       d="m 289.19325,92.774161 c 0.59416,-0.77521 0.97665,-1.62515 1.12061,-2.49011 l 0.0826,-0.49648 h -0.82799 -0.82799 v -0.40885 -0.40886 h 0.81773 c 0.92711,0 0.90515,0.0344 0.63641,-0.99761 -0.20862,-0.80116 -0.60444,-1.52382 -1.18914,-2.171 l -0.40899,-0.45272 h 0.58179 c 0.54069,0 0.60313,0.0309 0.88396,0.43807 0.45863,0.66488 0.86505,1.6411 1.02131,2.45315 l 0.14049,0.73011 h 0.8372 0.8372 l 0.12892,-0.75263 c 0.14207,-0.82942 0.58548,-1.88966 1.03889,-2.48411 0.25628,-0.336 0.36077,-0.38459 0.82714,-0.38459 h 0.5338 l -0.42683,0.52089 c -0.54628,0.66667 -1.09584,1.8407 -1.19282,2.54824 l -0.0757,0.5522 h 0.77519 0.77519 v 0.40886 0.40885 h -0.75931 c -0.72314,0 -0.75931,0.0133 -0.75931,0.27974 0,0.63982 0.4898,1.84036 1.05606,2.58849 0.31865,0.42101 0.57937,0.78897 0.57937,0.81769 0,0.0287 -0.2234,0.0521 -0.49646,0.052 -0.46247,-2.1e-4 -0.52285,-0.0389 -0.88145,-0.56509 -0.5066,-0.74331 -0.92915,-1.79852 -1.02495,-2.55954 l -0.0772,-0.61329 h -0.85018 -0.85018 l -0.11913,0.6717 c -0.16694,0.94136 -0.54005,1.86149 -1.01841,2.51157 -0.38253,0.51983 -0.44165,0.55488 -0.93611,0.55488 h -0.52778 z"
       style="font-variation-settings:normal;opacity:1;vector-effect:none;fill:#deaa87;fill-opacity:1;stroke-width:0.441512;stroke-linecap:butt;stroke-linejoin:miter;stroke-miterlimit:4;stroke-dasharray:none;stroke-dashoffset:0;stroke-opacity:1;-inkscape-stroke:none;stop-color:#000000;stop-opacity:1"
       id="path41"
       inkscape:label="Pisces"
       transform="translate(-2.891632,-31.177336)" /></g></svg>
