<?xml version="1.0" encoding="UTF-8" standalone="no"?>
<!-- Created with Inkscape (http://www.inkscape.org/) -->

<svg
   width="13.618387mm"
   height="13.618371mm"
   viewBox="0 0 13.618387 13.618371"
   version="1.1"
   id="svg1"
   xml:space="preserve"
   inkscape:version="1.3 (0e150ed6c4, 2023-07-21)"
   sodipodi:docname="heros_zodiac.svg"
   xmlns:inkscape="http://www.inkscape.org/namespaces/inkscape"
   xmlns:sodipodi="http://sodipodi.sourceforge.net/DTD/sodipodi-0.dtd"
   xmlns="http://www.w3.org/2000/svg"
   xmlns:svg="http://www.w3.org/2000/svg"><sodipodi:namedview
     id="namedview1"
     pagecolor="#ffffff"
     bordercolor="#000000"
     borderopacity="0.25"
     inkscape:showpageshadow="2"
     inkscape:pageopacity="0.0"
     inkscape:pagecheckerboard="0"
     inkscape:deskcolor="#d1d1d1"
     inkscape:document-units="mm"
     inkscape:zoom="1.3843855"
     inkscape:cx="1194.0316"
     inkscape:cy="366.58864"
     inkscape:window-width="2400"
     inkscape:window-height="1261"
     inkscape:window-x="2391"
     inkscape:window-y="-9"
     inkscape:window-maximized="1"
     inkscape:current-layer="layer2"><inkscape:page
       x="-5.8595038e-08"
       y="-1.6644475e-06"
       width="13.618387"
       height="13.618371"
       id="page2"
       margin="0"
       bleed="0" /></sodipodi:namedview><defs
     id="defs1" /><g
     inkscape:groupmode="layer"
     id="layer2"
     inkscape:label="Layer 2 Signs"
     style="font-variation-settings:normal;opacity:1;vector-effect:none;fill:#f9f9f9;fill-opacity:1;stroke-width:0.441512;stroke-linecap:butt;stroke-linejoin:miter;stroke-miterlimit:4;stroke-dasharray:none;stroke-dashoffset:0;stroke-opacity:1;-inkscape-stroke:none;stop-color:#000000;stop-opacity:1"
     transform="translate(-282.311,-141.15946)"><rect
       style="display:inline;fill:#1a1a1a;stroke-width:0.799999;stroke-linecap:round;stroke-dashoffset:407.029;paint-order:markers stroke fill"
       id="rect87"
       width="204.30693"
       height="203.92471"
       x="216.94569"
       y="31.368456"
       transform="translate(-2.891632,-31.177336)" /><circle
       style="font-variation-settings:normal;display:inline;opacity:1;vector-effect:none;fill:#3a1414;fill-opacity:1;stroke:#ebd3c3;stroke-width:0.623;stroke-linecap:round;stroke-linejoin:miter;stroke-miterlimit:4;stroke-dasharray:none;stroke-dashoffset:407.029;stroke-opacity:1;-inkscape-stroke:none;paint-order:markers stroke fill;stop-color:#000000;stop-opacity:1"
       id="circle33"
       cx="342.46265"
       cy="9.1390533"
       r="6.4980698"
       transform="rotate(30,56.731885,-20.984525)"
       inkscape:label="Scorpio_Circle" /><path
       d="m 295.22424,184.05227 c 0,-0.34044 -0.0331,-0.37526 -0.35625,-0.37526 -0.49924,0 -1.01578,-0.29602 -1.28392,-0.73578 -0.21137,-0.34667 -0.22806,-0.60605 -0.22846,-3.5515 -4.3e-4,-3.14964 -0.0969,-4.21474 -0.40497,-4.47039 -0.20345,-0.16886 -0.43993,0.0677 -0.85583,0.85625 -0.31611,0.5993 -0.31673,0.60545 -0.35327,3.49158 l -0.0366,2.89121 h -0.39195 -0.39196 l -0.0388,-3.30007 c -0.0339,-2.87982 -0.065,-3.34791 -0.24405,-3.67571 -0.27635,-0.50583 -0.47891,-0.40275 -0.93922,0.47795 l -0.37392,0.7154 -0.0366,2.89122 -0.0366,2.89121 h -0.40145 -0.40146 l -8.8e-4,-2.71599 c -8.8e-4,-3.02801 -0.10467,-3.97043 -0.52816,-4.80027 -0.15877,-0.31111 -0.28868,-0.58709 -0.28868,-0.61329 0,-0.0262 0.14956,-0.0476 0.33235,-0.0476 0.38879,0 0.63618,0.24051 0.90216,0.87707 l 0.19206,0.45967 0.17647,-0.34712 c 0.27249,-0.53603 0.86779,-1.10644 1.15469,-1.10644 0.29178,0 0.83432,0.58207 1.00864,1.08211 l 0.11363,0.32595 0.33061,-0.52131 c 0.64187,-1.01213 1.23213,-1.13234 1.77285,-0.36108 0.47083,0.67159 0.55684,1.43907 0.55761,4.97582 4.4e-4,2.86091 0.0176,3.12204 0.21431,3.30008 0.11749,0.10633 0.35405,0.19332 0.52567,0.19332 0.25497,0 0.31205,-0.0534 0.31205,-0.29203 0,-0.40314 0.10897,-0.3695 0.67656,0.20883 l 0.49158,0.50088 -0.58407,0.57529 -0.58407,0.57528 z"
       style="font-variation-settings:normal;opacity:1;vector-effect:none;fill:#deaa87;fill-opacity:1;stroke-width:0.441512;stroke-linecap:butt;stroke-linejoin:miter;stroke-miterlimit:4;stroke-dasharray:none;stroke-dashoffset:0;stroke-opacity:1;-inkscape-stroke:none;stop-color:#000000;stop-opacity:1"
       id="path37"
       inkscape:label="Scorpio"
       transform="translate(-2.891632,-31.177336)" /></g></svg>
