<?xml version="1.0" encoding="UTF-8" standalone="no"?>
<!-- Created with Inkscape (http://www.inkscape.org/) -->

<svg
   width="185.42857mm"
   height="36.548286mm"
   viewBox="0 0 185.42857 36.548285"
   version="1.1"
   id="svg1"
   xml:space="preserve"
   inkscape:version="1.3 (0e150ed6c4, 2023-07-21)"
   sodipodi:docname="Aries.svg"
   xmlns:inkscape="http://www.inkscape.org/namespaces/inkscape"
   xmlns:sodipodi="http://sodipodi.sourceforge.net/DTD/sodipodi-0.dtd"
   xmlns:xlink="http://www.w3.org/1999/xlink"
   xmlns="http://www.w3.org/2000/svg"
   xmlns:svg="http://www.w3.org/2000/svg"><sodipodi:namedview
     id="namedview1"
     pagecolor="#ffffff"
     bordercolor="#000000"
     borderopacity="0.25"
     inkscape:showpageshadow="2"
     inkscape:pageopacity="0.0"
     inkscape:pagecheckerboard="0"
     inkscape:deskcolor="#d1d1d1"
     inkscape:document-units="mm"
     inkscape:zoom="1.3843855"
     inkscape:cx="1194.0316"
     inkscape:cy="366.58864"
     inkscape:window-width="2400"
     inkscape:window-height="1261"
     inkscape:window-x="2391"
     inkscape:window-y="-9"
     inkscape:window-maximized="1"
     inkscape:current-layer="layer2"
     showgrid="false" /><defs
     id="defs1"><linearGradient
       id="linearGradient14"
       inkscape:collect="always"><stop
         style="stop-color:#a2876d;stop-opacity:1;"
         offset="0"
         id="stop14" /><stop
         style="stop-color:#595130;stop-opacity:0.23013699;"
         offset="1"
         id="stop15" /></linearGradient><radialGradient
       inkscape:collect="always"
       xlink:href="#linearGradient14"
       id="radialGradient15"
       cx="314.15686"
       cy="51.320786"
       fx="314.15686"
       fy="51.320786"
       r="92.714287"
       gradientTransform="matrix(1.1339637,0.00518928,-0.00130102,0.28430006,-42.018852,35.100037)"
       gradientUnits="userSpaceOnUse" /><radialGradient
       inkscape:collect="always"
       xlink:href="#linearGradient14"
       id="radialGradient1"
       gradientUnits="userSpaceOnUse"
       gradientTransform="matrix(1.1339637,0.00518928,-0.00130102,0.28430006,-42.018852,35.100037)"
       cx="314.15686"
       cy="51.320786"
       fx="314.15686"
       fy="51.320786"
       r="92.714287" /><radialGradient
       inkscape:collect="always"
       xlink:href="#linearGradient14"
       id="radialGradient2"
       gradientUnits="userSpaceOnUse"
       gradientTransform="matrix(1.1339637,0.00518928,-0.00130102,0.28430006,-42.018852,35.100037)"
       cx="314.15686"
       cy="51.320786"
       fx="314.15686"
       fy="51.320786"
       r="92.714287" /></defs><g
     inkscape:groupmode="layer"
     id="layer2"
     inkscape:label="Layer 2 Signs"
     style="font-variation-settings:normal;opacity:1;vector-effect:none;fill:#f9f9f9;fill-opacity:1;stroke-width:0.441512;stroke-linecap:butt;stroke-linejoin:miter;stroke-miterlimit:4;stroke-dasharray:none;stroke-dashoffset:0;stroke-opacity:1;-inkscape-stroke:none;stop-color:#000000;stop-opacity:1"
     transform="translate(-222.30262,-33.046642)"><rect
       style="font-variation-settings:normal;display:none;opacity:1;vector-effect:none;fill:#000000;fill-opacity:1;stroke-width:0.799999;stroke-linecap:round;stroke-linejoin:miter;stroke-miterlimit:4;stroke-dasharray:none;stroke-dashoffset:407.029;stroke-opacity:1;-inkscape-stroke:none;paint-order:markers stroke fill;stop-color:#000000;stop-opacity:1"
       id="rect87"
       width="204.30693"
       height="203.92471"
       x="216.94569"
       y="31.368456"
       transform="translate(-2.8916219,-31.177335)" /><path
       style="font-variation-settings:normal;display:inline;vector-effect:none;fill:#564338;fill-opacity:1;stroke-width:0.32406;stroke-linecap:butt;stroke-linejoin:miter;stroke-miterlimit:4;stroke-dasharray:none;stroke-dashoffset:0;stroke-opacity:1;-inkscape-stroke:none;stop-color:#000000"
       d="m 317.93856,65.112106 c -1.32458,-3.107554 -1.93893,-4.458019 -1.98009,-4.352579 -0.0327,0.08404 -0.21915,1.310367 -0.41404,2.725087 -0.19489,1.414721 -0.38068,2.659858 -0.41287,2.766961 -0.0357,0.118858 -0.21968,-0.916721 -0.47215,-2.657956 -0.2275,-1.568992 -0.43943,-2.939024 -0.47096,-3.044533 -0.0436,-0.14642 -0.51967,0.868218 -2.01083,4.287049 -1.07443,2.463367 -1.98967,4.536732 -2.03391,4.60746 -0.0555,0.08882 -0.0669,0.03565 -0.0367,-0.171469 0.1005,-0.686803 1.14438,-9.46709 1.12735,-9.48129 -0.009,-0.0089 -0.82353,1.004455 -1.80737,2.251046 -0.98383,1.246579 -1.80205,2.253254 -1.81824,2.237044 -0.017,-0.01625 0.45228,-1.25824 1.04109,-2.760079 0.58882,-1.501838 1.057,-2.744156 1.04045,-2.760725 -0.017,-0.01643 -1.81592,1.281272 -3.99859,2.884078 -2.18266,1.602796 -3.98825,2.914189 -4.01241,2.914189 -0.0242,0 0.0514,-0.125395 0.16775,-0.278659 0.68597,-0.903126 5.53321,-7.413251 5.58511,-7.501125 0.0374,-0.06313 -0.10352,-0.03455 -0.34899,0.0708 -0.44825,0.192556 -4.78949,1.956981 -4.99871,2.031643 -0.0707,0.0252 0.94356,-0.81406 2.25401,-1.865105 1.31043,-1.051067 2.36788,-1.925738 2.34988,-1.94374 -0.0189,-0.01795 -2.1882,0.200423 -4.82266,0.485395 -2.63446,0.284962 -4.84044,0.507191 -4.90218,0.493849 -0.0618,-0.01341 1.9109,-0.873057 4.38364,-1.910442 2.47274,-1.037385 4.48756,-1.894499 4.47736,-1.904687 -0.0244,-0.02429 -5.59055,-0.882028 -5.72394,-0.882028 -0.42333,0 0.37898,-0.143586 2.89069,-0.517297 1.59978,-0.238024 2.94723,-0.444989 2.9944,-0.459924 0.0472,-0.01492 -0.0493,-0.08544 -0.21435,-0.156658 -1.47959,-0.638491 -8.57911,-3.797394 -8.74538,-3.891223 -0.21161,-0.119425 -0.21044,-0.120464 0.0856,-0.07507 0.71738,0.109943 9.47523,1.140922 9.49805,1.11811 0.0132,-0.01379 -0.99892,-0.827363 -2.2507,-1.807691 -1.25177,-0.980338 -2.26347,-1.794935 -2.24818,-1.810219 0.0151,-0.0153 1.04773,0.380581 2.29435,0.879687 3.01886,1.208672 3.35698,1.33317 3.28316,1.208912 -0.0342,-0.05756 -1.36478,-1.889122 -2.95686,-4.070157 -1.59211,-2.181025 -2.87609,-3.965515 -2.85331,-3.965515 0.0319,0 7.21839,5.4399 7.7345,5.854657 0.071,0.05716 0.0506,-0.06304 -0.0565,-0.331741 -0.84323,-2.114211 -1.98407,-5.027673 -1.98407,-5.066965 0,-0.02699 0.8538,1.018525 1.89728,2.323126 1.04349,1.304602 1.90803,2.360866 1.9212,2.347254 0.0132,-0.0136 -0.20449,-2.14683 -0.48367,-4.74049 -0.27918,-2.59366 -0.49744,-4.81093 -0.48503,-4.927282 0.0132,-0.132459 0.72505,1.462426 1.90153,4.265781 1.03342,2.46252 1.88702,4.467587 1.89684,4.455706 0.009,-0.0119 0.20428,-1.326299 0.4321,-2.9209 0.2278,-1.594591 0.43852,-2.829262 0.46824,-2.743698 0.0297,0.08554 0.24289,1.456651 0.4737,3.046863 0.23082,1.5902 0.44333,2.863445 0.47229,2.829441 0.0289,-0.03406 0.89318,-1.971719 1.92052,-4.305999 1.02734,-2.334298 1.93872,-4.379215 2.02528,-4.544269 l 0.15736,-0.300087 -0.047,0.385831 c -0.68763,5.639566 -1.12145,9.308449 -1.10313,9.32934 0.0132,0.01455 0.78462,-0.95004 1.71522,-2.143526 1.99046,-2.552754 1.98823,-2.550176 1.80503,-2.084238 -1.62879,4.142657 -2.08418,5.320133 -2.06544,5.340675 0.0132,0.0136 1.81201,-1.281272 3.99907,-2.877506 2.18708,-1.596245 4.02852,-2.933478 4.0921,-2.971635 0.0635,-0.03814 -1.22393,1.715775 -2.86113,3.897635 -1.66819,2.223175 -2.90625,3.946694 -2.81643,3.920795 0.088,-0.02548 1.29026,-0.513415 2.67136,-1.084433 1.38108,-0.571028 2.53379,-1.03822 2.5616,-1.03822 0.0279,0 -1.01688,0.853779 -2.32147,1.897277 -1.30461,1.043498 -2.36087,1.908032 -2.34725,1.921185 0.0132,0.01322 2.14684,-0.204485 4.74048,-0.483661 2.59368,-0.279178 4.81221,-0.497443 4.9301,-0.485036 0.13582,0.01417 -1.43172,0.713359 -4.28034,1.908857 -2.47212,1.037465 -4.43984,1.895347 -4.3728,1.906419 0.0671,0.01114 1.3732,0.214144 2.90252,0.45129 2.41706,0.374788 3.16681,0.5146 2.75964,0.5146 -0.16094,0 -5.8691,0.857624 -5.89757,0.886092 -0.0132,0.01379 2.02348,0.929365 4.52735,2.03455 2.50386,1.105194 4.48049,2.019297 4.39252,2.031345 -0.0878,0.0119 -2.26271,-0.243381 -4.83279,-0.567574 -2.57009,-0.324213 -4.68466,-0.579502 -4.69906,-0.567314 -0.0151,0.01209 0.99734,0.8442 2.24831,1.848935 1.25096,1.004733 2.26454,1.836726 2.25238,1.848874 -0.0113,0.01209 -1.19751,-0.461944 -2.63414,-1.053545 -3.30685,-1.361747 -3.02079,-1.252534 -2.94355,-1.123745 0.0353,0.05884 1.36678,1.891393 2.95894,4.072427 1.59218,2.181035 2.87483,3.965504 2.85034,3.965504 -0.0246,0 -1.74929,-1.284747 -3.8329,-2.854982 -3.87545,-2.920612 -4.06377,-3.058892 -3.98226,-2.924326 0.0501,0.08255 1.57223,3.983746 1.92052,4.921904 0.16699,0.449866 0.17757,0.521311 0.0546,0.370556 -0.0837,-0.102726 -0.94318,-1.189455 -1.9099,-2.414964 -0.96673,-1.225499 -1.76312,-2.22179 -1.76977,-2.213973 -0.008,0.0079 0.22998,2.252051 0.5258,4.987175 0.29581,2.735135 0.52897,4.983173 0.51813,4.995639 -0.0113,0.01247 -0.88391,-2.004777 -1.94013,-4.482771 z m -1.40673,-5.051371 c 1.49966,-0.268105 2.70946,-0.790032 3.88565,-1.676322 4.16564,-3.13891 4.70094,-9.363326 1.13099,-13.15115 -0.30608,-0.32476 -0.77587,-0.759272 -1.04398,-0.965571 -2.41137,-1.855507 -5.87608,-2.314165 -8.72459,-1.154961 -2.78127,1.13186 -4.75785,3.472282 -5.3845,6.375758 -0.23797,1.102576 -0.19943,2.864462 0.0861,3.939237 0.43905,1.652204 1.28026,3.085278 2.49119,4.243934 0.76969,0.736481 1.33342,1.135762 2.24313,1.588776 1.64616,0.819735 3.57934,1.110761 5.31593,0.800299 z m -2.01489,-1.302282 c -2.4618,-0.268781 -4.39622,-1.44775 -5.73147,-3.493124 -1.92354,-2.946581 -1.37602,-7.083672 1.25691,-9.497083 1.43941,-1.319419 3.14896,-1.978133 5.11761,-1.971908 3.50561,0.01114 6.46459,2.401661 7.29762,5.895781 0.20602,0.864084 0.18834,2.367188 -0.0385,3.307199 -0.6752,2.79455 -2.87779,4.964333 -5.6727,5.588195 -0.60625,0.135331 -1.75126,0.223126 -2.22926,0.17094 z"
       id="path8"
       inkscape:export-filename="Gemini-header.svg"
       inkscape:export-xdpi="96"
       inkscape:export-ydpi="96" /><g
       id="g9"
       transform="translate(0.86003674)"
       style="fill:none;fill-opacity:1;stroke:url(#radialGradient15);stroke-opacity:1"><path
         style="font-variation-settings:normal;display:inline;fill:none;fill-opacity:1;stroke:url(#radialGradient1);stroke-width:1.631;stroke-linecap:round;stroke-linejoin:miter;stroke-miterlimit:4;stroke-dasharray:none;stroke-dashoffset:407.029;stroke-opacity:1;paint-order:markers stroke fill"
         d="m 339.41445,50.337822 c 12.42278,-7.453668 38.7973,-3.822393 53.70463,3.440155 14.90734,7.262548 12.81463,-2.783652 12.81463,-2.783652"
         id="path3"
         sodipodi:nodetypes="csc" /><path
         style="font-variation-settings:normal;display:inline;fill:none;fill-opacity:1;stroke:url(#radialGradient2);stroke-width:1.631;stroke-linecap:round;stroke-linejoin:miter;stroke-miterlimit:4;stroke-dasharray:none;stroke-dashoffset:407.029;stroke-opacity:1;paint-order:markers stroke fill"
         d="m 288.89929,50.337822 c -12.42278,-7.453668 -38.7973,-3.822393 -53.70463,3.440155 -14.90734,7.262548 -12.81463,-2.783652 -12.81463,-2.783652"
         id="path9"
         sodipodi:nodetypes="csc" /></g><circle
       style="font-variation-settings:normal;display:inline;vector-effect:none;fill:#3a1414;fill-opacity:1;stroke:#ebd3c3;stroke-width:0.623;stroke-linecap:round;stroke-linejoin:miter;stroke-miterlimit:4;stroke-dasharray:none;stroke-dashoffset:407.029;stroke-opacity:1;-inkscape-stroke:none;paint-order:markers stroke fill;stop-color:#000000"
       id="circle29"
       cx="51.320786"
       cy="-315.01691"
       r="6.4980698"
       transform="rotate(90)"
       inkscape:label="Cancer_Circle" /><path
       d="m 312.79076,54.250769 c -0.41762,-0.11035 -0.96958,-0.30445 -1.22658,-0.43133 -0.40573,-0.20032 -0.47204,-0.28838 -0.50352,-0.66876 -0.02,-0.24094 -0.005,-0.43806 0.0331,-0.43806 0.0381,0 0.32996,0.13206 0.6485,0.29348 0.93598,0.47429 2.00116,0.67195 3.29902,0.61216 0.6274,-0.0289 1.17222,-0.084 1.21069,-0.12249 0.0385,-0.0385 -0.0398,-0.20947 -0.17394,-0.37999 -0.81039,-1.03025 -0.0165,-2.5448 1.33388,-2.5448 0.87823,0 1.56928,0.7116 1.56928,1.61596 0,0.67641 -0.32662,1.11953 -1.1478,1.55721 -1.32482,0.70612 -3.4714,0.92179 -5.04262,0.50662 z m 5.15994,-1.49785 c 0.33049,-0.29909 0.27886,-0.90657 -0.10255,-1.2066 -0.76945,-0.60524 -1.7759,0.47602 -1.08562,1.1663 0.28566,0.28566 0.89425,0.3063 1.18817,0.0403 z m -5.97948,-0.84203 c -0.76605,-0.4096 -1.06389,-1.4171 -0.65351,-2.21068 0.36695,-0.70961 1.91112,-1.36028 3.55321,-1.49722 1.09067,-0.091 2.35771,0.0986 3.38103,0.5058 0.72084,0.28685 0.7301,0.2963 0.7301,0.74538 0,0.25016 -0.0215,0.45484 -0.0479,0.45484 -0.0264,0 -0.37316,-0.15382 -0.77069,-0.34181 -0.92405,-0.43701 -2.14251,-0.64331 -3.24771,-0.54989 -0.47314,0.04 -0.90632,0.1012 -0.96264,0.136 -0.0563,0.0348 4.4e-4,0.23222 0.12651,0.4387 0.28253,0.46336 0.29942,1.27283 0.0359,1.71897 -0.23815,0.40317 -0.94819,0.81755 -1.40085,0.81755 -0.185,0 -0.51953,-0.0979 -0.7434,-0.21764 z m 1.28681,-0.83371 c 0.32736,-0.32736 0.31341,-0.98222 -0.026,-1.21995 -0.88792,-0.62193 -1.83333,0.55031 -1.00744,1.24916 0.32013,0.27088 0.74536,0.25886 1.03343,-0.0292 z"
       style="font-variation-settings:normal;display:inline;vector-effect:none;fill:#deaa87;fill-opacity:1;stroke-width:0.441512;stroke-linecap:butt;stroke-linejoin:miter;stroke-miterlimit:4;stroke-dasharray:none;stroke-dashoffset:0;stroke-opacity:1;-inkscape-stroke:none;stop-color:#000000"
       id="path30"
       inkscape:label="Cancer" /><circle
       style="font-variation-settings:normal;display:none;vector-effect:none;fill:#3a1414;fill-opacity:1;stroke:#ebd3c3;stroke-width:0.623;stroke-linecap:round;stroke-linejoin:miter;stroke-miterlimit:4;stroke-dasharray:none;stroke-dashoffset:407.029;stroke-opacity:1;-inkscape-stroke:none;paint-order:markers stroke fill;stop-color:#000000"
       id="circle28"
       cx="201.95355"
       cy="-247.15225"
       r="6.4980698"
       transform="rotate(60)"
       inkscape:label="Gemini_Circle" /><path
       d="m 310.95758,55.137955 c 0.0375,-0.39317 0.0449,-0.39779 0.91397,-0.57787 l 0.87613,-0.18154 0.0311,-3.05165 c 0.0289,-2.83368 0.0164,-3.05556 -0.17523,-3.10649 -0.11349,-0.0302 -0.5349,-0.12002 -0.93646,-0.19967 -0.72758,-0.14433 -0.7301,-0.14623 -0.7301,-0.55039 0,-0.36174 0.0284,-0.39862 0.26284,-0.34132 1.13005,0.2762 2.13689,0.36933 3.94257,0.36469 1.82192,-0.005 2.56391,-0.0756 3.65341,-0.34902 0.30166,-0.0757 0.31836,-0.0582 0.31836,0.33333 0,0.40551 -0.0115,0.41547 -0.61329,0.53233 -0.33731,0.0655 -0.71842,0.13564 -0.84692,0.15586 -0.22593,0.0356 -0.23466,0.13904 -0.26471,3.13697 l -0.0311,3.1002 0.87799,0.14754 0.87799,0.14752 v 0.40124 c 0,0.22069 -0.0394,0.40123 -0.0876,0.40122 -0.0482,-1e-5 -0.50815,-0.0855 -1.02215,-0.18989 -1.12324,-0.22822 -4.43718,-0.26995 -5.49039,-0.0691 -0.3855,0.0735 -0.90192,0.16936 -1.14761,0.21303 l -0.44671,0.0794 z m 5.58665,-3.81323 v -2.94963 h -1.51862 -1.51862 v 2.90095 c 0,1.59553 0.0219,2.92286 0.0487,2.94963 0.0268,0.0268 0.71015,0.0487 1.51862,0.0487 h 1.46995 z"
       style="font-variation-settings:normal;display:none;vector-effect:none;fill:#deaa87;fill-opacity:1;stroke-width:0.441512;stroke-linecap:butt;stroke-linejoin:miter;stroke-miterlimit:4;stroke-dasharray:none;stroke-dashoffset:0;stroke-opacity:1;-inkscape-stroke:none;stop-color:#000000"
       id="path29"
       inkscape:label="Gemini" /><circle
       style="font-variation-settings:normal;display:none;vector-effect:none;fill:#3a1414;fill-opacity:1;stroke:#ebd3c3;stroke-width:0.623;stroke-linecap:round;stroke-linejoin:miter;stroke-miterlimit:4;stroke-dasharray:none;stroke-dashoffset:407.029;stroke-opacity:1;-inkscape-stroke:none;paint-order:markers stroke fill;stop-color:#000000"
       id="circle27"
       cx="298.47305"
       cy="-113.06335"
       transform="rotate(30)"
       r="6.4980698"
       inkscape:label="Taurus_Circle" /><path
       d="m 314.15569,55.335487 c -0.24881,-0.0925 -0.64097,-0.32087 -0.87147,-0.50743 -1.2465,-1.00888 -1.28089,-3.09553 -0.0675,-4.095707 l 0.39835,-0.32836 -0.35211,-0.26032 c -0.19365,-0.14318 -0.5142,-0.54755 -0.71233,-0.89861 -0.42151,-0.74688 -0.77782,-1.05683 -1.41086,-1.22729 -0.42492,-0.11442 -0.45626,-0.15124 -0.42281,-0.49686 0.0328,-0.33835 0.0689,-0.36996 0.38658,-0.33767 0.86794,0.0882 1.56209,0.65392 2.33634,1.90398 0.39596,0.63929 0.80611,0.864 1.57703,0.864 0.77091,0 1.18107,-0.22471 1.57703,-0.864 0.77425,-1.25006 1.4684,-1.81575 2.33633,-1.90398 0.31764,-0.0323 0.35383,-6.6e-4 0.38659,0.33767 0.0335,0.34562 0.002,0.38244 -0.42282,0.49686 -0.62643,0.16868 -1.02962,0.5119 -1.35855,1.15646 -0.1525,0.29885 -0.44043,0.69828 -0.63984,0.88763 l -0.36257,0.34427 0.40438,0.415037 c 0.53188,0.5459 0.76624,1.13731 0.76624,1.93366 0,0.74436 -0.17652,1.2375 -0.63949,1.78658 -0.6598,0.7825 -1.97447,1.14143 -2.90853,0.79408 z m 1.96619,-1.05046 c 1.07813,-0.82234 1.03474,-2.3205 -0.0914,-3.1549 -0.46286,-0.342947 -1.56431,-0.342947 -2.02716,0 -1.01553,0.75246 -1.1683,2.21482 -0.31231,2.98948 0.72468,0.65583 1.7008,0.72225 2.43085,0.16542 z"
       style="font-variation-settings:normal;display:none;vector-effect:none;fill:#deaa87;fill-opacity:1;stroke-width:0.441512;stroke-linecap:butt;stroke-linejoin:miter;stroke-miterlimit:4;stroke-dasharray:none;stroke-dashoffset:0;stroke-opacity:1;-inkscape-stroke:none;stop-color:#000000"
       id="path28"
       inkscape:label="Taurus" /><circle
       style="font-variation-settings:normal;display:none;opacity:1;vector-effect:none;fill:#3a1414;fill-opacity:1;stroke:#ebd3c3;stroke-width:0.623;stroke-linecap:round;stroke-linejoin:miter;stroke-miterlimit:4;stroke-dasharray:none;stroke-dashoffset:407.029;stroke-opacity:1;-inkscape-stroke:none;paint-order:markers stroke fill;stop-color:#000000;stop-opacity:1"
       id="circle26"
       cx="315.01691"
       cy="51.320786"
       r="6.4980698"
       inkscape:label="Aries_Circle"
       transform="translate(9.375e-6)" /><path
       d="m 314.61732,55.321729 c -0.0249,-0.0803 -0.0715,-0.64541 -0.10349,-1.25578 -0.11378,-2.16835 -0.88616,-4.96747 -1.58723,-5.75211 -0.38739,-0.43356 -0.89067,-0.47149 -1.19926,-0.0904 -0.29579,0.3653 -0.28384,1.34177 0.0226,1.84436 0.12826,0.21036 0.2332,0.40748 0.2332,0.43805 0,0.0306 -0.18655,0.0556 -0.41457,0.0556 -0.3745,0 -0.43635,-0.048 -0.63992,-0.49647 -0.13363,-0.29439 -0.22623,-0.75799 -0.22749,-1.13896 -0.004,-1.11634 0.60635,-1.75226 1.68098,-1.75226 0.41826,0 0.60919,0.0718 0.92258,0.34697 0.52283,0.45905 1.08113,1.61917 1.42059,2.95194 0.15153,0.59495 0.29909,1.00287 0.3279,0.9065 0.0288,-0.0964 0.16651,-0.59577 0.30601,-1.10976 0.33846,-1.24705 0.86005,-2.29495 1.36147,-2.7352 0.33478,-0.29394 0.51215,-0.36037 0.96134,-0.36001 0.69465,5.3e-4 1.26747,0.33621 1.49238,0.8745 0.23282,0.55722 0.20601,1.4252 -0.0623,2.01628 -0.20358,0.44849 -0.26543,0.49647 -0.63993,0.49647 -0.22802,0 -0.41457,-0.0152 -0.41457,-0.0337 0,-0.0185 0.10513,-0.23993 0.23363,-0.49197 0.29891,-0.58627 0.30955,-1.45739 0.0222,-1.81232 -0.26047,-0.32166 -0.75933,-0.34095 -1.09,-0.0421 -0.78792,0.712 -1.53446,3.35794 -1.80038,6.38113 -0.0795,0.90387 -0.0802,0.90532 -0.42003,0.90532 -0.18722,0 -0.36076,-0.0657 -0.38565,-0.14602 z"
       style="font-variation-settings:normal;display:none;opacity:1;vector-effect:none;fill:#deaa87;fill-opacity:1;stroke-width:0.441512;stroke-linecap:butt;stroke-linejoin:miter;stroke-miterlimit:4;stroke-dasharray:none;stroke-dashoffset:0;stroke-opacity:1;-inkscape-stroke:none;stop-color:#000000;stop-opacity:1"
       id="path27"
       inkscape:label="Aries"
       transform="translate(9.375e-6)" /></g></svg>
