<?xml version="1.0" encoding="UTF-8" standalone="no"?>
<!-- Created with Inkscape (http://www.inkscape.org/) -->

<svg
   width="185.42857mm"
   height="36.548286mm"
   viewBox="0 0 185.42857 36.548285"
   version="1.1"
   id="svg1"
   xml:space="preserve"
   inkscape:version="1.3 (0e150ed6c4, 2023-07-21)"
   sodipodi:docname="Aries.svg"
   xmlns:inkscape="http://www.inkscape.org/namespaces/inkscape"
   xmlns:sodipodi="http://sodipodi.sourceforge.net/DTD/sodipodi-0.dtd"
   xmlns:xlink="http://www.w3.org/1999/xlink"
   xmlns="http://www.w3.org/2000/svg"
   xmlns:svg="http://www.w3.org/2000/svg"><sodipodi:namedview
     id="namedview1"
     pagecolor="#ffffff"
     bordercolor="#000000"
     borderopacity="0.25"
     inkscape:showpageshadow="2"
     inkscape:pageopacity="0.0"
     inkscape:pagecheckerboard="0"
     inkscape:deskcolor="#d1d1d1"
     inkscape:document-units="mm"
     inkscape:zoom="1.3843855"
     inkscape:cx="6.8622504"
     inkscape:cy="-180.22437"
     inkscape:window-width="1920"
     inkscape:window-height="991"
     inkscape:window-x="-9"
     inkscape:window-y="-9"
     inkscape:window-maximized="1"
     inkscape:current-layer="layer2"
     showgrid="false" /><defs
     id="defs1"><linearGradient
       id="linearGradient14"
       inkscape:collect="always"><stop
         style="stop-color:#a2876d;stop-opacity:1;"
         offset="0"
         id="stop14" /><stop
         style="stop-color:#595130;stop-opacity:0.23013699;"
         offset="1"
         id="stop15" /></linearGradient><radialGradient
       inkscape:collect="always"
       xlink:href="#linearGradient14"
       id="radialGradient15"
       cx="314.15686"
       cy="51.320786"
       fx="314.15686"
       fy="51.320786"
       r="92.714287"
       gradientTransform="matrix(1.1339637,0.00518928,-0.00130102,0.28430006,-42.018852,35.100037)"
       gradientUnits="userSpaceOnUse" /><radialGradient
       inkscape:collect="always"
       xlink:href="#linearGradient14"
       id="radialGradient1"
       gradientUnits="userSpaceOnUse"
       gradientTransform="matrix(1.1339637,0.00518928,-0.00130102,0.28430006,-42.018852,35.100037)"
       cx="314.15686"
       cy="51.320786"
       fx="314.15686"
       fy="51.320786"
       r="92.714287" /><radialGradient
       inkscape:collect="always"
       xlink:href="#linearGradient14"
       id="radialGradient2"
       gradientUnits="userSpaceOnUse"
       gradientTransform="matrix(1.1339637,0.00518928,-0.00130102,0.28430006,-42.018852,35.100037)"
       cx="314.15686"
       cy="51.320786"
       fx="314.15686"
       fy="51.320786"
       r="92.714287" /></defs><g
     inkscape:groupmode="layer"
     id="layer2"
     inkscape:label="Layer 2 Signs"
     style="font-variation-settings:normal;opacity:1;vector-effect:none;fill:#f9f9f9;fill-opacity:1;stroke-width:0.441512;stroke-linecap:butt;stroke-linejoin:miter;stroke-miterlimit:4;stroke-dasharray:none;stroke-dashoffset:0;stroke-opacity:1;-inkscape-stroke:none;stop-color:#000000;stop-opacity:1"
     transform="translate(-222.30262,-33.046642)"><rect
       style="font-variation-settings:normal;display:none;opacity:1;vector-effect:none;fill:#000000;fill-opacity:1;stroke-width:0.799999;stroke-linecap:round;stroke-linejoin:miter;stroke-miterlimit:4;stroke-dasharray:none;stroke-dashoffset:407.029;stroke-opacity:1;-inkscape-stroke:none;paint-order:markers stroke fill;stop-color:#000000;stop-opacity:1"
       id="rect87"
       width="204.30693"
       height="203.92471"
       x="216.94569"
       y="31.368456"
       transform="translate(-2.8916219,-31.177335)" /><path
       style="font-variation-settings:normal;display:inline;vector-effect:none;fill:#564338;fill-opacity:1;stroke-width:0.32406;stroke-linecap:butt;stroke-linejoin:miter;stroke-miterlimit:4;stroke-dasharray:none;stroke-dashoffset:0;stroke-opacity:1;-inkscape-stroke:none;stop-color:#000000"
       d="m 317.93856,65.112106 c -1.32458,-3.107554 -1.93893,-4.458019 -1.98009,-4.352579 -0.0327,0.08404 -0.21915,1.310367 -0.41404,2.725087 -0.19489,1.414721 -0.38068,2.659858 -0.41287,2.766961 -0.0357,0.118858 -0.21968,-0.916721 -0.47215,-2.657956 -0.2275,-1.568992 -0.43943,-2.939024 -0.47096,-3.044533 -0.0436,-0.14642 -0.51967,0.868218 -2.01083,4.287049 -1.07443,2.463367 -1.98967,4.536732 -2.03391,4.60746 -0.0555,0.08882 -0.0669,0.03565 -0.0367,-0.171469 0.1005,-0.686803 1.14438,-9.46709 1.12735,-9.48129 -0.009,-0.0089 -0.82353,1.004455 -1.80737,2.251046 -0.98383,1.246579 -1.80205,2.253254 -1.81824,2.237044 -0.017,-0.01625 0.45228,-1.25824 1.04109,-2.760079 0.58882,-1.501838 1.057,-2.744156 1.04045,-2.760725 -0.017,-0.01643 -1.81592,1.281272 -3.99859,2.884078 -2.18266,1.602796 -3.98825,2.914189 -4.01241,2.914189 -0.0242,0 0.0514,-0.125395 0.16775,-0.278659 0.68597,-0.903126 5.53321,-7.413251 5.58511,-7.501125 0.0374,-0.06313 -0.10352,-0.03455 -0.34899,0.0708 -0.44825,0.192556 -4.78949,1.956981 -4.99871,2.031643 -0.0707,0.0252 0.94356,-0.81406 2.25401,-1.865105 1.31043,-1.051067 2.36788,-1.925738 2.34988,-1.94374 -0.0189,-0.01795 -2.1882,0.200423 -4.82266,0.485395 -2.63446,0.284962 -4.84044,0.507191 -4.90218,0.493849 -0.0618,-0.01341 1.9109,-0.873057 4.38364,-1.910442 2.47274,-1.037385 4.48756,-1.894499 4.47736,-1.904687 -0.0244,-0.02429 -5.59055,-0.882028 -5.72394,-0.882028 -0.42333,0 0.37898,-0.143586 2.89069,-0.517297 1.59978,-0.238024 2.94723,-0.444989 2.9944,-0.459924 0.0472,-0.01492 -0.0493,-0.08544 -0.21435,-0.156658 -1.47959,-0.638491 -8.57911,-3.797394 -8.74538,-3.891223 -0.21161,-0.119425 -0.21044,-0.120464 0.0856,-0.07507 0.71738,0.109943 9.47523,1.140922 9.49805,1.11811 0.0132,-0.01379 -0.99892,-0.827363 -2.2507,-1.807691 -1.25177,-0.980338 -2.26347,-1.794935 -2.24818,-1.810219 0.0151,-0.0153 1.04773,0.380581 2.29435,0.879687 3.01886,1.208672 3.35698,1.33317 3.28316,1.208912 -0.0342,-0.05756 -1.36478,-1.889122 -2.95686,-4.070157 -1.59211,-2.181025 -2.87609,-3.965515 -2.85331,-3.965515 0.0319,0 7.21839,5.4399 7.7345,5.854657 0.071,0.05716 0.0506,-0.06304 -0.0565,-0.331741 -0.84323,-2.114211 -1.98407,-5.027673 -1.98407,-5.066965 0,-0.02699 0.8538,1.018525 1.89728,2.323126 1.04349,1.304602 1.90803,2.360866 1.9212,2.347254 0.0132,-0.0136 -0.20449,-2.14683 -0.48367,-4.74049 -0.27918,-2.59366 -0.49744,-4.81093 -0.48503,-4.927282 0.0132,-0.132459 0.72505,1.462426 1.90153,4.265781 1.03342,2.46252 1.88702,4.467587 1.89684,4.455706 0.009,-0.0119 0.20428,-1.326299 0.4321,-2.9209 0.2278,-1.594591 0.43852,-2.829262 0.46824,-2.743698 0.0297,0.08554 0.24289,1.456651 0.4737,3.046863 0.23082,1.5902 0.44333,2.863445 0.47229,2.829441 0.0289,-0.03406 0.89318,-1.971719 1.92052,-4.305999 1.02734,-2.334298 1.93872,-4.379215 2.02528,-4.544269 l 0.15736,-0.300087 -0.047,0.385831 c -0.68763,5.639566 -1.12145,9.308449 -1.10313,9.32934 0.0132,0.01455 0.78462,-0.95004 1.71522,-2.143526 1.99046,-2.552754 1.98823,-2.550176 1.80503,-2.084238 -1.62879,4.142657 -2.08418,5.320133 -2.06544,5.340675 0.0132,0.0136 1.81201,-1.281272 3.99907,-2.877506 2.18708,-1.596245 4.02852,-2.933478 4.0921,-2.971635 0.0635,-0.03814 -1.22393,1.715775 -2.86113,3.897635 -1.66819,2.223175 -2.90625,3.946694 -2.81643,3.920795 0.088,-0.02548 1.29026,-0.513415 2.67136,-1.084433 1.38108,-0.571028 2.53379,-1.03822 2.5616,-1.03822 0.0279,0 -1.01688,0.853779 -2.32147,1.897277 -1.30461,1.043498 -2.36087,1.908032 -2.34725,1.921185 0.0132,0.01322 2.14684,-0.204485 4.74048,-0.483661 2.59368,-0.279178 4.81221,-0.497443 4.9301,-0.485036 0.13582,0.01417 -1.43172,0.713359 -4.28034,1.908857 -2.47212,1.037465 -4.43984,1.895347 -4.3728,1.906419 0.0671,0.01114 1.3732,0.214144 2.90252,0.45129 2.41706,0.374788 3.16681,0.5146 2.75964,0.5146 -0.16094,0 -5.8691,0.857624 -5.89757,0.886092 -0.0132,0.01379 2.02348,0.929365 4.52735,2.03455 2.50386,1.105194 4.48049,2.019297 4.39252,2.031345 -0.0878,0.0119 -2.26271,-0.243381 -4.83279,-0.567574 -2.57009,-0.324213 -4.68466,-0.579502 -4.69906,-0.567314 -0.0151,0.01209 0.99734,0.8442 2.24831,1.848935 1.25096,1.004733 2.26454,1.836726 2.25238,1.848874 -0.0113,0.01209 -1.19751,-0.461944 -2.63414,-1.053545 -3.30685,-1.361747 -3.02079,-1.252534 -2.94355,-1.123745 0.0353,0.05884 1.36678,1.891393 2.95894,4.072427 1.59218,2.181035 2.87483,3.965504 2.85034,3.965504 -0.0246,0 -1.74929,-1.284747 -3.8329,-2.854982 -3.87545,-2.920612 -4.06377,-3.058892 -3.98226,-2.924326 0.0501,0.08255 1.57223,3.983746 1.92052,4.921904 0.16699,0.449866 0.17757,0.521311 0.0546,0.370556 -0.0837,-0.102726 -0.94318,-1.189455 -1.9099,-2.414964 -0.96673,-1.225499 -1.76312,-2.22179 -1.76977,-2.213973 -0.008,0.0079 0.22998,2.252051 0.5258,4.987175 0.29581,2.735135 0.52897,4.983173 0.51813,4.995639 -0.0113,0.01247 -0.88391,-2.004777 -1.94013,-4.482771 z m -1.40673,-5.051371 c 1.49966,-0.268105 2.70946,-0.790032 3.88565,-1.676322 4.16564,-3.13891 4.70094,-9.363326 1.13099,-13.15115 -0.30608,-0.32476 -0.77587,-0.759272 -1.04398,-0.965571 -2.41137,-1.855507 -5.87608,-2.314165 -8.72459,-1.154961 -2.78127,1.13186 -4.75785,3.472282 -5.3845,6.375758 -0.23797,1.102576 -0.19943,2.864462 0.0861,3.939237 0.43905,1.652204 1.28026,3.085278 2.49119,4.243934 0.76969,0.736481 1.33342,1.135762 2.24313,1.588776 1.64616,0.819735 3.57934,1.110761 5.31593,0.800299 z m -2.01489,-1.302282 c -2.4618,-0.268781 -4.39622,-1.44775 -5.73147,-3.493124 -1.92354,-2.946581 -1.37602,-7.083672 1.25691,-9.497083 1.43941,-1.319419 3.14896,-1.978133 5.11761,-1.971908 3.50561,0.01114 6.46459,2.401661 7.29762,5.895781 0.20602,0.864084 0.18834,2.367188 -0.0385,3.307199 -0.6752,2.79455 -2.87779,4.964333 -5.6727,5.588195 -0.60625,0.135331 -1.75126,0.223126 -2.22926,0.17094 z"
       id="path8"
       inkscape:export-filename="Aquarius-header.svg"
       inkscape:export-xdpi="96"
       inkscape:export-ydpi="96" /><g
       id="g9"
       transform="translate(0.86003674)"
       style="fill:none;fill-opacity:1;stroke:url(#radialGradient15);stroke-opacity:1"><path
         style="font-variation-settings:normal;display:inline;fill:none;fill-opacity:1;stroke:url(#radialGradient1);stroke-width:1.631;stroke-linecap:round;stroke-linejoin:miter;stroke-miterlimit:4;stroke-dasharray:none;stroke-dashoffset:407.029;stroke-opacity:1;paint-order:markers stroke fill"
         d="m 339.41445,50.337822 c 12.42278,-7.453668 38.7973,-3.822393 53.70463,3.440155 14.90734,7.262548 12.81463,-2.783652 12.81463,-2.783652"
         id="path3"
         sodipodi:nodetypes="csc" /><path
         style="font-variation-settings:normal;display:inline;fill:none;fill-opacity:1;stroke:url(#radialGradient2);stroke-width:1.631;stroke-linecap:round;stroke-linejoin:miter;stroke-miterlimit:4;stroke-dasharray:none;stroke-dashoffset:407.029;stroke-opacity:1;paint-order:markers stroke fill"
         d="m 288.89929,50.337822 c -12.42278,-7.453668 -38.7973,-3.822393 -53.70463,3.440155 -14.90734,7.262548 -12.81463,-2.783652 -12.81463,-2.783652"
         id="path9"
         sodipodi:nodetypes="csc" /></g><circle
       style="font-variation-settings:normal;display:inline;vector-effect:none;fill:#3a1414;fill-opacity:1;stroke:#ebd3c3;stroke-width:0.623;stroke-linecap:round;stroke-linejoin:miter;stroke-miterlimit:4;stroke-dasharray:none;stroke-dashoffset:407.029;stroke-opacity:1;-inkscape-stroke:none;paint-order:markers stroke fill;stop-color:#000000"
       id="circle40"
       cx="-247.15221"
       cy="-201.95352"
       r="6.4980698"
       transform="rotate(150)"
       inkscape:label="Pisces_Circle" /><path
       d="m 312.19827,54.657807 c 0.59416,-0.77521 0.97665,-1.62515 1.12061,-2.49011 l 0.0826,-0.49648 h -0.82799 -0.82799 v -0.40885 -0.40886 h 0.81773 c 0.92711,0 0.90515,0.0344 0.63641,-0.99761 -0.20862,-0.80116 -0.60444,-1.52382 -1.18914,-2.171 l -0.40899,-0.45272 h 0.58179 c 0.54069,0 0.60313,0.0309 0.88396,0.43807 0.45863,0.66488 0.86505,1.6411 1.02131,2.45315 l 0.14049,0.73011 h 0.8372 0.8372 l 0.12892,-0.75263 c 0.14207,-0.82942 0.58548,-1.88966 1.03889,-2.48411 0.25628,-0.336 0.36077,-0.38459 0.82714,-0.38459 h 0.5338 l -0.42683,0.52089 c -0.54628,0.66667 -1.09584,1.8407 -1.19282,2.54824 l -0.0757,0.5522 h 0.77519 0.77519 v 0.40886 0.40885 h -0.75931 c -0.72314,0 -0.75931,0.0133 -0.75931,0.27974 0,0.63982 0.4898,1.84036 1.05606,2.58849 0.31865,0.42101 0.57937,0.78897 0.57937,0.81769 0,0.0287 -0.2234,0.0521 -0.49646,0.052 -0.46247,-2.1e-4 -0.52285,-0.0389 -0.88145,-0.56509 -0.5066,-0.74331 -0.92915,-1.79852 -1.02495,-2.55954 l -0.0772,-0.61329 h -0.85018 -0.85018 l -0.11913,0.6717 c -0.16694,0.94136 -0.54005,1.86149 -1.01841,2.51157 -0.38253,0.51983 -0.44165,0.55488 -0.93611,0.55488 h -0.52778 z"
       style="font-variation-settings:normal;vector-effect:none;fill:#deaa87;fill-opacity:1;stroke-width:0.441512;stroke-linecap:butt;stroke-linejoin:miter;stroke-miterlimit:4;stroke-dasharray:none;stroke-dashoffset:0;stroke-opacity:1;-inkscape-stroke:none;stop-color:#000000"
       id="path41"
       inkscape:label="Pisces" /><circle
       style="font-variation-settings:normal;display:none;vector-effect:none;fill:#3a1414;fill-opacity:1;stroke:#ebd3c3;stroke-width:0.623;stroke-linecap:round;stroke-linejoin:miter;stroke-miterlimit:4;stroke-dasharray:none;stroke-dashoffset:407.029;stroke-opacity:1;-inkscape-stroke:none;paint-order:markers stroke fill;stop-color:#000000"
       id="circle39"
       cx="-113.06334"
       cy="-298.47299"
       r="6.4980698"
       transform="rotate(120)"
       inkscape:label="Aquarius_Circle" /><path
       d="m 310.91815,53.816129 -0.19852,-0.33607 0.84957,-0.48944 c 0.46726,-0.26919 1.01348,-0.58761 1.21381,-0.7076 0.50882,-0.30476 0.59204,-0.28073 0.86233,0.2491 0.13112,0.257 0.28837,0.46727 0.34947,0.46727 0.0611,0 0.50426,-0.23245 0.98481,-0.51656 l 0.87373,-0.51657 0.30272,0.51657 c 0.1665,0.28411 0.33994,0.51568 0.38542,0.5146 0.0455,-8.8e-4 0.47684,-0.23204 0.95858,-0.51327 l 0.87589,-0.51131 0.45182,0.77611 c 0.61138,1.05018 0.60772,1.02795 0.2037,1.23688 l -0.35683,0.18452 -0.23505,-0.46074 c -0.12928,-0.25341 -0.2787,-0.48772 -0.33203,-0.52068 -0.0533,-0.0329 -0.50868,0.17473 -1.01189,0.46153 -0.50321,0.28681 -0.92521,0.50734 -0.93778,0.49007 -0.0126,-0.0173 -0.14589,-0.2548 -0.29627,-0.52786 -0.15038,-0.27306 -0.30316,-0.49627 -0.33952,-0.49604 -0.0363,2.4e-4 -0.2238,0.096 -0.41655,0.21287 -0.19275,0.11683 -0.59632,0.35594 -0.89683,0.53135 l -0.54637,0.31893 -0.31165,-0.53179 c -0.1714,-0.29249 -0.33062,-0.53179 -0.35382,-0.53179 -0.0232,0 -0.30751,0.15645 -0.63182,0.34767 -1.25073,0.73745 -1.22331,0.73078 -1.44692,0.35225 z m 0,-3.50451 -0.19852,-0.33607 0.84957,-0.48943 c 0.46726,-0.26919 1.01348,-0.58761 1.21381,-0.70761 0.50882,-0.30476 0.59204,-0.28072 0.86233,0.24911 0.13112,0.257 0.28837,0.46727 0.34947,0.46727 0.0611,0 0.50426,-0.23246 0.98481,-0.51657 l 0.87373,-0.51656 0.30272,0.51656 c 0.1665,0.28411 0.33994,0.51568 0.38542,0.51461 0.0455,-8.9e-4 0.47684,-0.23205 0.95858,-0.51327 l 0.87589,-0.51132 0.45182,0.77611 c 0.61138,1.05018 0.60772,1.02796 0.2037,1.23689 l -0.35683,0.18452 -0.23505,-0.46075 c -0.12928,-0.2534 -0.2787,-0.48771 -0.33203,-0.52067 -0.0533,-0.0329 -0.50868,0.17472 -1.01189,0.46153 -0.50321,0.2868 -0.92521,0.50733 -0.93778,0.49007 -0.0126,-0.0173 -0.14589,-0.25481 -0.29627,-0.52787 -0.15038,-0.27305 -0.30316,-0.49627 -0.33952,-0.49603 -0.0363,2.4e-4 -0.2238,0.096 -0.41655,0.21286 -0.19275,0.11684 -0.59632,0.35594 -0.89683,0.53136 l -0.54637,0.31892 -0.31165,-0.53179 c -0.1714,-0.29248 -0.33062,-0.53179 -0.35382,-0.53179 -0.0232,0 -0.30751,0.15646 -0.63182,0.34768 -1.25073,0.73745 -1.22331,0.73078 -1.44692,0.35224 z"
       style="font-variation-settings:normal;display:none;vector-effect:none;fill:#deaa87;fill-opacity:1;stroke-width:0.441512;stroke-linecap:butt;stroke-linejoin:miter;stroke-miterlimit:4;stroke-dasharray:none;stroke-dashoffset:0;stroke-opacity:1;-inkscape-stroke:none;stop-color:#000000"
       id="path40"
       inkscape:label="Aquarius" /><circle
       style="font-variation-settings:normal;display:none;vector-effect:none;fill:#3a1414;fill-opacity:1;stroke:#ebd3c3;stroke-width:0.623;stroke-linecap:round;stroke-linejoin:miter;stroke-miterlimit:4;stroke-dasharray:none;stroke-dashoffset:407.029;stroke-opacity:1;-inkscape-stroke:none;paint-order:markers stroke fill;stop-color:#000000"
       id="circle38"
       cx="51.320774"
       cy="-315.01688"
       r="6.4980698"
       transform="rotate(90)"
       inkscape:label="Capricorn_Circle" /><path
       d="m 313.02202,55.191028 c 0,-0.37789 0.027,-0.40886 0.35625,-0.40886 0.67963,0 1.35305,-0.5236 1.68009,-1.30632 0.16689,-0.39944 0.16211,-0.46345 -0.0742,-0.99135 -0.19147,-0.42778 -0.27434,-0.92241 -0.34246,-2.04409 -0.0869,-1.43117 -0.30126,-2.3168 -0.56073,-2.3168 -0.17097,0 -0.66602,0.78114 -0.8792,1.38729 -0.10991,0.31252 -0.17977,0.91401 -0.17977,1.54782 v 1.03667 h -0.39122 -0.39122 l -0.067,-1.50697 c -0.0848,-1.90769 -0.33997,-2.46481 -1.12875,-2.46481 -0.2091,0 -0.24131,-0.0721 -0.24131,-0.5406 v -0.54061 l 0.47549,0.076 c 0.66041,0.1056 0.9895,0.35336 1.28777,0.9695 l 0.25611,0.52906 0.1523,-0.33431 c 0.19162,-0.42062 0.48782,-0.76016 0.89701,-1.02828 0.30131,-0.19742 0.33583,-0.198 0.62205,-0.0105 0.54787,0.35898 0.83703,1.2384 0.92301,2.80714 0.10099,1.84261 0.13324,1.95115 0.43711,1.47122 0.50074,-0.79087 1.79106,-1.07795 2.54344,-0.56589 0.62552,0.42573 0.82899,0.78737 0.83438,1.48297 0.005,0.69751 -0.19852,1.0631 -0.83438,1.49586 -0.50317,0.34245 -1.4058,0.35534 -2.04549,0.0292 -0.25204,-0.1285 -0.46705,-0.23364 -0.47779,-0.23364 -0.0107,0 -0.0843,0.15638 -0.16349,0.34752 -0.32763,0.79098 -1.46064,1.51906 -2.36675,1.5209 -0.28939,4.4e-4 -0.32125,-0.0399 -0.32125,-0.40821 z m 4.95948,-1.88322 c 0.20692,-0.0794 0.53091,-0.63207 0.53091,-0.90562 0,-0.0946 -0.13609,-0.3338 -0.30242,-0.53148 -0.53811,-0.6395 -1.3448,-0.43451 -1.7998,0.45737 l -0.23002,0.45088 0.35737,0.30071 c 0.35477,0.29852 0.99638,0.39989 1.44396,0.22814 z"
       style="font-variation-settings:normal;display:none;vector-effect:none;fill:#deaa87;fill-opacity:1;stroke-width:0.441512;stroke-linecap:butt;stroke-linejoin:miter;stroke-miterlimit:4;stroke-dasharray:none;stroke-dashoffset:0;stroke-opacity:1;-inkscape-stroke:none;stop-color:#000000"
       id="path39"
       inkscape:label="Capricorn" /><circle
       style="font-variation-settings:normal;display:none;vector-effect:none;fill:#3a1414;fill-opacity:1;stroke:#ebd3c3;stroke-width:0.623;stroke-linecap:round;stroke-linejoin:miter;stroke-miterlimit:4;stroke-dasharray:none;stroke-dashoffset:407.029;stroke-opacity:1;-inkscape-stroke:none;paint-order:markers stroke fill;stop-color:#000000"
       id="circle37"
       cx="201.95354"
       cy="-247.15224"
       r="6.4980698"
       transform="rotate(60)"
       inkscape:label="Sagittarius_Circle" /><path
       d="m 311.88629,54.471591 -0.28049,-0.29857 0.95731,-0.9623 0.9573,-0.9623 -0.72435,-0.72435 -0.72434,-0.72435 0.28082,-0.29892 0.28083,-0.29892 0.7376,0.73104 0.73761,0.73106 1.48743,-1.48744 1.48744,-1.48743 h -1.13839 -1.1384 v -0.40886 -0.40886 h 1.81066 1.81066 v 1.81066 1.81066 h -0.40885 -0.40886 v -1.0788 -1.07881 l -1.45952,1.45602 -1.45951,1.45601 0.72322,0.72972 0.72324,0.72972 -0.27977,0.2978 -0.27977,0.29779 -0.7366,-0.73005 -0.7366,-0.73005 -0.96908,0.96405 -0.96909,0.96406 z"
       style="font-variation-settings:normal;display:none;vector-effect:none;fill:#deaa87;fill-opacity:1;stroke-width:0.441512;stroke-linecap:butt;stroke-linejoin:miter;stroke-miterlimit:4;stroke-dasharray:none;stroke-dashoffset:0;stroke-opacity:1;-inkscape-stroke:none;stop-color:#000000"
       id="path38"
       inkscape:label="Sagittarius" /><circle
       style="font-variation-settings:normal;display:none;vector-effect:none;fill:#3a1414;fill-opacity:1;stroke:#ebd3c3;stroke-width:0.623;stroke-linecap:round;stroke-linejoin:miter;stroke-miterlimit:4;stroke-dasharray:none;stroke-dashoffset:407.029;stroke-opacity:1;-inkscape-stroke:none;paint-order:markers stroke fill;stop-color:#000000"
       id="circle33"
       cx="298.47302"
       cy="-113.06335"
       r="6.4980698"
       transform="rotate(30)"
       inkscape:label="Scorpio_Circle" /><path
       d="m 318.22929,56.227064 c 0,-0.34044 -0.0331,-0.37526 -0.35625,-0.37526 -0.49924,0 -1.01578,-0.29602 -1.28392,-0.73578 -0.21137,-0.34667 -0.22806,-0.60605 -0.22846,-3.5515 -4.3e-4,-3.14964 -0.0969,-4.21474 -0.40497,-4.47039 -0.20345,-0.16886 -0.43993,0.0677 -0.85583,0.85625 -0.31611,0.5993 -0.31673,0.60545 -0.35327,3.49158 l -0.0366,2.89121 h -0.39195 -0.39196 l -0.0388,-3.30007 c -0.0339,-2.87982 -0.065,-3.34791 -0.24405,-3.67571 -0.27635,-0.50583 -0.47891,-0.40275 -0.93922,0.47795 l -0.37392,0.7154 -0.0366,2.89122 -0.0366,2.89121 h -0.40145 -0.40146 l -8.8e-4,-2.71599 c -8.8e-4,-3.02801 -0.10467,-3.97043 -0.52816,-4.80027 -0.15877,-0.31111 -0.28868,-0.58709 -0.28868,-0.61329 0,-0.0262 0.14956,-0.0476 0.33235,-0.0476 0.38879,0 0.63618,0.24051 0.90216,0.87707 l 0.19206,0.45967 0.17647,-0.34712 c 0.27249,-0.53603 0.86779,-1.10644 1.15469,-1.10644 0.29178,0 0.83432,0.58207 1.00864,1.08211 l 0.11363,0.32595 0.33061,-0.52131 c 0.64187,-1.01213 1.23213,-1.13234 1.77285,-0.36108 0.47083,0.67159 0.55684,1.43907 0.55761,4.97582 4.4e-4,2.86091 0.0176,3.12204 0.21431,3.30008 0.11749,0.10633 0.35405,0.19332 0.52567,0.19332 0.25497,0 0.31205,-0.0534 0.31205,-0.29203 0,-0.40314 0.10897,-0.3695 0.67656,0.20883 l 0.49158,0.50088 -0.58407,0.57529 -0.58407,0.57528 z"
       style="font-variation-settings:normal;display:none;vector-effect:none;fill:#deaa87;fill-opacity:1;stroke-width:0.441512;stroke-linecap:butt;stroke-linejoin:miter;stroke-miterlimit:4;stroke-dasharray:none;stroke-dashoffset:0;stroke-opacity:1;-inkscape-stroke:none;stop-color:#000000"
       id="path37"
       inkscape:label="Scorpio" /><circle
       style="font-variation-settings:normal;display:none;vector-effect:none;fill:#3a1414;fill-opacity:1;stroke:#ebd3c3;stroke-width:0.623;stroke-linecap:round;stroke-linejoin:miter;stroke-miterlimit:4;stroke-dasharray:none;stroke-dashoffset:407.029;stroke-opacity:1;-inkscape-stroke:none;paint-order:markers stroke fill;stop-color:#000000"
       id="circle32"
       cx="315.01688"
       cy="51.320774"
       r="6.4980698"
       inkscape:label="Libra_Circle" /><path
       d="m 311.00619,54.952119 c -0.0428,-0.0428 -0.0779,-0.22682 -0.0779,-0.40886 v -0.33098 h 4.08859 4.08859 v 0.40886 0.40885 h -4.01072 c -2.20588,0 -4.04575,-0.0351 -4.08858,-0.0779 z m 0,-2.45316 c -0.0428,-0.0428 -0.0779,-0.22682 -0.0779,-0.40886 v -0.33098 h 0.93453 c 0.514,0 0.93454,-0.0152 0.93454,-0.0337 0,-0.0185 -0.10514,-0.23992 -0.23364,-0.49196 -0.60491,-1.18651 -0.0584,-2.6852 1.22658,-3.36381 0.61226,-0.32332 1.80624,-0.34697 2.40731,-0.0477 0.56333,0.28051 1.15246,0.86866 1.35644,1.35419 0.24616,0.58595 0.21085,1.5377 -0.0781,2.10399 l -0.24435,0.47897 h 0.93691 0.93691 v 0.41225 0.41225 l -1.54783,-0.0326 -1.54782,-0.0326 -0.0384,-0.33611 c -0.0294,-0.25757 0.0597,-0.43655 0.38134,-0.76596 0.23086,-0.23642 0.47082,-0.60794 0.53324,-0.82561 0.33505,-1.16824 -0.82904,-2.35824 -2.13547,-2.18301 -1.54661,0.20744 -2.15336,2.15837 -0.96257,3.09505 0.2174,0.17099 0.29438,0.34171 0.29438,0.6528 v 0.42125 h -1.49915 c -0.82453,0 -1.53419,-0.0351 -1.57702,-0.0779 z"
       style="font-variation-settings:normal;display:none;vector-effect:none;fill:#deaa87;fill-opacity:1;stroke-width:0.441512;stroke-linecap:butt;stroke-linejoin:miter;stroke-miterlimit:4;stroke-dasharray:none;stroke-dashoffset:0;stroke-opacity:1;-inkscape-stroke:none;stop-color:#000000"
       id="path33"
       inkscape:label="Libra" /><circle
       style="font-variation-settings:normal;display:none;vector-effect:none;fill:#3a1414;fill-opacity:1;stroke:#ebd3c3;stroke-width:0.623;stroke-linecap:round;stroke-linejoin:miter;stroke-miterlimit:4;stroke-dasharray:none;stroke-dashoffset:407.029;stroke-opacity:1;-inkscape-stroke:none;paint-order:markers stroke fill;stop-color:#000000"
       id="circle31"
       cx="-247.15224"
       cy="-201.95354"
       r="6.4980698"
       transform="rotate(150)"
       inkscape:label="Virgo_Circle" /><path
       d="m 316.85651,56.065736 -0.24865,-0.51179 -0.48988,0.21669 c -0.26942,0.11918 -0.66938,0.23121 -0.88879,0.24896 -0.37033,0.0299 -0.40149,0.006 -0.43473,-0.33666 -0.0323,-0.33313 0.002,-0.37716 0.35041,-0.45376 0.21242,-0.0466 0.61627,-0.19604 0.89744,-0.33197 l 0.51123,-0.24715 -0.0558,-3.32928 c -0.0452,-2.69726 -0.0912,-3.41244 -0.24239,-3.76735 -0.10264,-0.24093 -0.23372,-0.43806 -0.29129,-0.43806 -0.18492,0 -0.47209,0.39726 -0.80451,1.11293 -0.31976,0.68838 -0.32469,0.73412 -0.36823,3.41372 l -0.0442,2.71599 h -0.39654 -0.39654 l -0.007,-3.18325 c -0.007,-3.24314 -0.0929,-4.00098 -0.45512,-4.00098 -0.26941,0 -0.80127,0.87117 -0.9956,1.63078 -0.13159,0.51432 -0.17813,1.33078 -0.17813,3.12484 v 2.42861 h -0.40073 -0.40073 l -0.0374,-3.30484 -0.0374,-3.30485 -0.35973,-0.72533 -0.35974,-0.72534 h 0.37083 c 0.43537,0 0.71703,0.26946 0.93039,0.89009 l 0.15068,0.43829 0.24195,-0.47427 c 0.25443,-0.49871 0.86373,-1.08774 1.12518,-1.08774 0.21279,0 0.85997,0.75855 0.94866,1.1119 0.04,0.15944 0.10648,0.28824 0.1477,0.28621 0.0412,-0.002 0.21482,-0.2343 0.38578,-0.51615 0.17095,-0.28186 0.45298,-0.60562 0.62674,-0.71947 0.28434,-0.1863 0.34671,-0.18973 0.62372,-0.0343 0.46856,0.26288 0.85281,1.06271 0.92147,1.91814 l 0.0595,0.74138 0.3781,-0.4009 c 0.20795,-0.22049 0.44105,-0.4009 0.518,-0.4009 0.60319,0 1.06957,1.02217 1.14914,2.51853 0.0878,1.65181 -0.34432,2.84676 -1.46138,4.04099 l -0.51154,0.54687 0.32747,0.62301 c 0.18011,0.34266 0.3453,0.66243 0.36709,0.71062 0.0218,0.0482 -0.17573,0.0876 -0.43892,0.0876 -0.4495,0 -0.4936,-0.031 -0.72717,-0.51179 z m 0.84762,-2.54208 c 0.53753,-0.7549 0.80015,-1.61669 0.80309,-2.63545 0.005,-1.61892 -0.38364,-2.01332 -0.89105,-0.905 -0.25768,0.56286 -0.30531,0.86316 -0.36132,2.27793 -0.0695,1.75697 -0.014,1.91311 0.44928,1.26252 z"
       style="font-variation-settings:normal;display:none;vector-effect:none;fill:#deaa87;fill-opacity:1;stroke-width:0.441512;stroke-linecap:butt;stroke-linejoin:miter;stroke-miterlimit:4;stroke-dasharray:none;stroke-dashoffset:0;stroke-opacity:1;-inkscape-stroke:none;stop-color:#000000"
       id="path32"
       inkscape:label="Virgo" /><circle
       style="font-variation-settings:normal;display:none;vector-effect:none;fill:#3a1414;fill-opacity:1;stroke:#ebd3c3;stroke-width:0.623;stroke-linecap:round;stroke-linejoin:miter;stroke-miterlimit:4;stroke-dasharray:none;stroke-dashoffset:407.029;stroke-opacity:1;-inkscape-stroke:none;paint-order:markers stroke fill;stop-color:#000000"
       id="circle30"
       cx="-113.06335"
       cy="-298.47302"
       r="6.4980698"
       transform="rotate(120)"
       inkscape:label="Leo_Circle" /><path
       d="m 316.14959,55.258782 c -0.98587,-0.66438 -0.90271,-1.86372 0.24487,-3.53168 0.79982,-1.16248 1.02724,-2.23138 0.63581,-2.98832 -0.4267,-0.82515 -1.69096,-1.08421 -2.39599,-0.49096 -0.40174,0.33804 -0.69398,0.90743 -0.69398,1.35211 0,0.15048 0.19003,0.65934 0.42229,1.1308 0.55396,1.12447 0.61506,1.60081 0.28146,2.19438 -0.32425,0.57692 -0.77436,0.84776 -1.40889,0.84776 -0.62143,0 -1.19606,-0.3449 -1.44354,-0.86642 -0.46477,-0.97943 0.066,-2.07475 1.13014,-2.33214 0.31281,-0.0757 0.32213,-0.0991 0.25127,-0.63328 -0.14515,-1.0942 0.39147,-2.10339 1.38907,-2.61233 0.36758,-0.18753 0.62778,-0.22898 1.20603,-0.19216 1.37942,0.0878 2.26075,1.06067 2.26075,2.49544 0,0.61411 -0.0695,0.86376 -0.4423,1.58786 -0.24327,0.47256 -0.61546,1.12931 -0.82709,1.45946 -0.47946,0.74798 -0.60197,1.46922 -0.30526,1.79709 0.23102,0.25528 0.75513,0.30272 1.12968,0.10226 0.19998,-0.10701 0.2901,-0.0792 0.53401,0.16469 l 0.29343,0.29343 -0.47862,0.24418 c -0.63243,0.32264 -1.28349,0.31454 -1.78314,-0.0222 z m -2.32611,-2.53726 c 0.31572,-0.31572 0.2942,-0.76777 -0.0531,-1.11507 -0.35029,-0.35029 -0.6367,-0.36257 -1.04091,-0.0446 -0.35419,0.27861 -0.40494,0.73538 -0.12594,1.1337 0.23772,0.3394 0.89258,0.35335 1.21995,0.026 z"
       style="font-variation-settings:normal;display:none;vector-effect:none;fill:#deaa87;fill-opacity:1;stroke-width:0.441512;stroke-linecap:butt;stroke-linejoin:miter;stroke-miterlimit:4;stroke-dasharray:none;stroke-dashoffset:0;stroke-opacity:1;-inkscape-stroke:none;stop-color:#000000"
       id="path31"
       inkscape:label="Leo" /><circle
       style="font-variation-settings:normal;display:none;vector-effect:none;fill:#3a1414;fill-opacity:1;stroke:#ebd3c3;stroke-width:0.623;stroke-linecap:round;stroke-linejoin:miter;stroke-miterlimit:4;stroke-dasharray:none;stroke-dashoffset:407.029;stroke-opacity:1;-inkscape-stroke:none;paint-order:markers stroke fill;stop-color:#000000"
       id="circle29"
       cx="51.320786"
       cy="-315.01691"
       r="6.4980698"
       transform="rotate(90)"
       inkscape:label="Cancer_Circle" /><path
       d="m 312.79076,54.250769 c -0.41762,-0.11035 -0.96958,-0.30445 -1.22658,-0.43133 -0.40573,-0.20032 -0.47204,-0.28838 -0.50352,-0.66876 -0.02,-0.24094 -0.005,-0.43806 0.0331,-0.43806 0.0381,0 0.32996,0.13206 0.6485,0.29348 0.93598,0.47429 2.00116,0.67195 3.29902,0.61216 0.6274,-0.0289 1.17222,-0.084 1.21069,-0.12249 0.0385,-0.0385 -0.0398,-0.20947 -0.17394,-0.37999 -0.81039,-1.03025 -0.0165,-2.5448 1.33388,-2.5448 0.87823,0 1.56928,0.7116 1.56928,1.61596 0,0.67641 -0.32662,1.11953 -1.1478,1.55721 -1.32482,0.70612 -3.4714,0.92179 -5.04262,0.50662 z m 5.15994,-1.49785 c 0.33049,-0.29909 0.27886,-0.90657 -0.10255,-1.2066 -0.76945,-0.60524 -1.7759,0.47602 -1.08562,1.1663 0.28566,0.28566 0.89425,0.3063 1.18817,0.0403 z m -5.97948,-0.84203 c -0.76605,-0.4096 -1.06389,-1.4171 -0.65351,-2.21068 0.36695,-0.70961 1.91112,-1.36028 3.55321,-1.49722 1.09067,-0.091 2.35771,0.0986 3.38103,0.5058 0.72084,0.28685 0.7301,0.2963 0.7301,0.74538 0,0.25016 -0.0215,0.45484 -0.0479,0.45484 -0.0264,0 -0.37316,-0.15382 -0.77069,-0.34181 -0.92405,-0.43701 -2.14251,-0.64331 -3.24771,-0.54989 -0.47314,0.04 -0.90632,0.1012 -0.96264,0.136 -0.0563,0.0348 4.4e-4,0.23222 0.12651,0.4387 0.28253,0.46336 0.29942,1.27283 0.0359,1.71897 -0.23815,0.40317 -0.94819,0.81755 -1.40085,0.81755 -0.185,0 -0.51953,-0.0979 -0.7434,-0.21764 z m 1.28681,-0.83371 c 0.32736,-0.32736 0.31341,-0.98222 -0.026,-1.21995 -0.88792,-0.62193 -1.83333,0.55031 -1.00744,1.24916 0.32013,0.27088 0.74536,0.25886 1.03343,-0.0292 z"
       style="font-variation-settings:normal;display:none;vector-effect:none;fill:#deaa87;fill-opacity:1;stroke-width:0.441512;stroke-linecap:butt;stroke-linejoin:miter;stroke-miterlimit:4;stroke-dasharray:none;stroke-dashoffset:0;stroke-opacity:1;-inkscape-stroke:none;stop-color:#000000"
       id="path30"
       inkscape:label="Cancer" /><circle
       style="font-variation-settings:normal;display:none;vector-effect:none;fill:#3a1414;fill-opacity:1;stroke:#ebd3c3;stroke-width:0.623;stroke-linecap:round;stroke-linejoin:miter;stroke-miterlimit:4;stroke-dasharray:none;stroke-dashoffset:407.029;stroke-opacity:1;-inkscape-stroke:none;paint-order:markers stroke fill;stop-color:#000000"
       id="circle28"
       cx="201.95355"
       cy="-247.15225"
       r="6.4980698"
       transform="rotate(60)"
       inkscape:label="Gemini_Circle" /><path
       d="m 310.95758,55.137955 c 0.0375,-0.39317 0.0449,-0.39779 0.91397,-0.57787 l 0.87613,-0.18154 0.0311,-3.05165 c 0.0289,-2.83368 0.0164,-3.05556 -0.17523,-3.10649 -0.11349,-0.0302 -0.5349,-0.12002 -0.93646,-0.19967 -0.72758,-0.14433 -0.7301,-0.14623 -0.7301,-0.55039 0,-0.36174 0.0284,-0.39862 0.26284,-0.34132 1.13005,0.2762 2.13689,0.36933 3.94257,0.36469 1.82192,-0.005 2.56391,-0.0756 3.65341,-0.34902 0.30166,-0.0757 0.31836,-0.0582 0.31836,0.33333 0,0.40551 -0.0115,0.41547 -0.61329,0.53233 -0.33731,0.0655 -0.71842,0.13564 -0.84692,0.15586 -0.22593,0.0356 -0.23466,0.13904 -0.26471,3.13697 l -0.0311,3.1002 0.87799,0.14754 0.87799,0.14752 v 0.40124 c 0,0.22069 -0.0394,0.40123 -0.0876,0.40122 -0.0482,-1e-5 -0.50815,-0.0855 -1.02215,-0.18989 -1.12324,-0.22822 -4.43718,-0.26995 -5.49039,-0.0691 -0.3855,0.0735 -0.90192,0.16936 -1.14761,0.21303 l -0.44671,0.0794 z m 5.58665,-3.81323 v -2.94963 h -1.51862 -1.51862 v 2.90095 c 0,1.59553 0.0219,2.92286 0.0487,2.94963 0.0268,0.0268 0.71015,0.0487 1.51862,0.0487 h 1.46995 z"
       style="font-variation-settings:normal;display:none;vector-effect:none;fill:#deaa87;fill-opacity:1;stroke-width:0.441512;stroke-linecap:butt;stroke-linejoin:miter;stroke-miterlimit:4;stroke-dasharray:none;stroke-dashoffset:0;stroke-opacity:1;-inkscape-stroke:none;stop-color:#000000"
       id="path29"
       inkscape:label="Gemini" /><circle
       style="font-variation-settings:normal;display:none;vector-effect:none;fill:#3a1414;fill-opacity:1;stroke:#ebd3c3;stroke-width:0.623;stroke-linecap:round;stroke-linejoin:miter;stroke-miterlimit:4;stroke-dasharray:none;stroke-dashoffset:407.029;stroke-opacity:1;-inkscape-stroke:none;paint-order:markers stroke fill;stop-color:#000000"
       id="circle27"
       cx="298.47305"
       cy="-113.06335"
       transform="rotate(30)"
       r="6.4980698"
       inkscape:label="Taurus_Circle" /><path
       d="m 314.15569,55.335487 c -0.24881,-0.0925 -0.64097,-0.32087 -0.87147,-0.50743 -1.2465,-1.00888 -1.28089,-3.09553 -0.0675,-4.095707 l 0.39835,-0.32836 -0.35211,-0.26032 c -0.19365,-0.14318 -0.5142,-0.54755 -0.71233,-0.89861 -0.42151,-0.74688 -0.77782,-1.05683 -1.41086,-1.22729 -0.42492,-0.11442 -0.45626,-0.15124 -0.42281,-0.49686 0.0328,-0.33835 0.0689,-0.36996 0.38658,-0.33767 0.86794,0.0882 1.56209,0.65392 2.33634,1.90398 0.39596,0.63929 0.80611,0.864 1.57703,0.864 0.77091,0 1.18107,-0.22471 1.57703,-0.864 0.77425,-1.25006 1.4684,-1.81575 2.33633,-1.90398 0.31764,-0.0323 0.35383,-6.6e-4 0.38659,0.33767 0.0335,0.34562 0.002,0.38244 -0.42282,0.49686 -0.62643,0.16868 -1.02962,0.5119 -1.35855,1.15646 -0.1525,0.29885 -0.44043,0.69828 -0.63984,0.88763 l -0.36257,0.34427 0.40438,0.415037 c 0.53188,0.5459 0.76624,1.13731 0.76624,1.93366 0,0.74436 -0.17652,1.2375 -0.63949,1.78658 -0.6598,0.7825 -1.97447,1.14143 -2.90853,0.79408 z m 1.96619,-1.05046 c 1.07813,-0.82234 1.03474,-2.3205 -0.0914,-3.1549 -0.46286,-0.342947 -1.56431,-0.342947 -2.02716,0 -1.01553,0.75246 -1.1683,2.21482 -0.31231,2.98948 0.72468,0.65583 1.7008,0.72225 2.43085,0.16542 z"
       style="font-variation-settings:normal;display:none;vector-effect:none;fill:#deaa87;fill-opacity:1;stroke-width:0.441512;stroke-linecap:butt;stroke-linejoin:miter;stroke-miterlimit:4;stroke-dasharray:none;stroke-dashoffset:0;stroke-opacity:1;-inkscape-stroke:none;stop-color:#000000"
       id="path28"
       inkscape:label="Taurus" /><circle
       style="font-variation-settings:normal;display:none;opacity:1;vector-effect:none;fill:#3a1414;fill-opacity:1;stroke:#ebd3c3;stroke-width:0.623;stroke-linecap:round;stroke-linejoin:miter;stroke-miterlimit:4;stroke-dasharray:none;stroke-dashoffset:407.029;stroke-opacity:1;-inkscape-stroke:none;paint-order:markers stroke fill;stop-color:#000000;stop-opacity:1"
       id="circle26"
       cx="315.01691"
       cy="51.320786"
       r="6.4980698"
       inkscape:label="Aries_Circle"
       transform="translate(9.375e-6)" /><path
       d="m 314.61732,55.321729 c -0.0249,-0.0803 -0.0715,-0.64541 -0.10349,-1.25578 -0.11378,-2.16835 -0.88616,-4.96747 -1.58723,-5.75211 -0.38739,-0.43356 -0.89067,-0.47149 -1.19926,-0.0904 -0.29579,0.3653 -0.28384,1.34177 0.0226,1.84436 0.12826,0.21036 0.2332,0.40748 0.2332,0.43805 0,0.0306 -0.18655,0.0556 -0.41457,0.0556 -0.3745,0 -0.43635,-0.048 -0.63992,-0.49647 -0.13363,-0.29439 -0.22623,-0.75799 -0.22749,-1.13896 -0.004,-1.11634 0.60635,-1.75226 1.68098,-1.75226 0.41826,0 0.60919,0.0718 0.92258,0.34697 0.52283,0.45905 1.08113,1.61917 1.42059,2.95194 0.15153,0.59495 0.29909,1.00287 0.3279,0.9065 0.0288,-0.0964 0.16651,-0.59577 0.30601,-1.10976 0.33846,-1.24705 0.86005,-2.29495 1.36147,-2.7352 0.33478,-0.29394 0.51215,-0.36037 0.96134,-0.36001 0.69465,5.3e-4 1.26747,0.33621 1.49238,0.8745 0.23282,0.55722 0.20601,1.4252 -0.0623,2.01628 -0.20358,0.44849 -0.26543,0.49647 -0.63993,0.49647 -0.22802,0 -0.41457,-0.0152 -0.41457,-0.0337 0,-0.0185 0.10513,-0.23993 0.23363,-0.49197 0.29891,-0.58627 0.30955,-1.45739 0.0222,-1.81232 -0.26047,-0.32166 -0.75933,-0.34095 -1.09,-0.0421 -0.78792,0.712 -1.53446,3.35794 -1.80038,6.38113 -0.0795,0.90387 -0.0802,0.90532 -0.42003,0.90532 -0.18722,0 -0.36076,-0.0657 -0.38565,-0.14602 z"
       style="font-variation-settings:normal;display:none;opacity:1;vector-effect:none;fill:#deaa87;fill-opacity:1;stroke-width:0.441512;stroke-linecap:butt;stroke-linejoin:miter;stroke-miterlimit:4;stroke-dasharray:none;stroke-dashoffset:0;stroke-opacity:1;-inkscape-stroke:none;stop-color:#000000;stop-opacity:1"
       id="path27"
       inkscape:label="Aries"
       transform="translate(9.375e-6)" /></g></svg>
