<?xml version="1.0" encoding="UTF-8" standalone="no"?>
<!-- Created with Inkscape (http://www.inkscape.org/) -->

<svg
   width="13.618387mm"
   height="13.618371mm"
   viewBox="0 0 13.618387 13.618371"
   version="1.1"
   id="svg1"
   xml:space="preserve"
   inkscape:version="1.3 (0e150ed6c4, 2023-07-21)"
   sodipodi:docname="heros_zodiac.svg"
   xmlns:inkscape="http://www.inkscape.org/namespaces/inkscape"
   xmlns:sodipodi="http://sodipodi.sourceforge.net/DTD/sodipodi-0.dtd"
   xmlns="http://www.w3.org/2000/svg"
   xmlns:svg="http://www.w3.org/2000/svg"><sodipodi:namedview
     id="namedview1"
     pagecolor="#ffffff"
     bordercolor="#000000"
     borderopacity="0.25"
     inkscape:showpageshadow="2"
     inkscape:pageopacity="0.0"
     inkscape:pagecheckerboard="0"
     inkscape:deskcolor="#d1d1d1"
     inkscape:document-units="mm"
     inkscape:zoom="1.3843855"
     inkscape:cx="1194.0316"
     inkscape:cy="366.58864"
     inkscape:window-width="2400"
     inkscape:window-height="1261"
     inkscape:window-x="2391"
     inkscape:window-y="-9"
     inkscape:window-maximized="1"
     inkscape:current-layer="layer2"><inkscape:page
       x="-1.0306488e-07"
       y="-1.6644475e-06"
       width="13.618387"
       height="13.618371"
       id="page2"
       margin="0"
       bleed="0" /></sodipodi:namedview><defs
     id="defs1" /><g
     inkscape:groupmode="layer"
     id="layer2"
     inkscape:label="Layer 2 Signs"
     style="font-variation-settings:normal;opacity:1;vector-effect:none;fill:#f9f9f9;fill-opacity:1;stroke-width:0.441512;stroke-linecap:butt;stroke-linejoin:miter;stroke-miterlimit:4;stroke-dasharray:none;stroke-dashoffset:0;stroke-opacity:1;-inkscape-stroke:none;stop-color:#000000;stop-opacity:1"
     transform="translate(-334.10443,-141.15946)"><rect
       style="display:inline;fill:#1a1a1a;stroke-width:0.799999;stroke-linecap:round;stroke-dashoffset:407.029;paint-order:markers stroke fill"
       id="rect87"
       width="204.30693"
       height="203.92471"
       x="216.94569"
       y="31.368456"
       transform="translate(-2.891632,-31.177336)" /><circle
       style="font-variation-settings:normal;display:inline;opacity:1;vector-effect:none;fill:#3a1414;fill-opacity:1;stroke:#ebd3c3;stroke-width:0.623;stroke-linecap:round;stroke-linejoin:miter;stroke-miterlimit:4;stroke-dasharray:none;stroke-dashoffset:407.029;stroke-opacity:1;-inkscape-stroke:none;paint-order:markers stroke fill;stop-color:#000000;stop-opacity:1"
       id="circle31"
       cx="-208.17111"
       cy="-327.04761"
       r="6.4980698"
       transform="rotate(150,2.7311551,-15.976073)"
       inkscape:label="Virgo_Circle" /><path
       d="m 345.64489,183.89094 -0.24865,-0.51179 -0.48988,0.21669 c -0.26942,0.11918 -0.66938,0.23121 -0.88879,0.24896 -0.37033,0.0299 -0.40149,0.006 -0.43473,-0.33666 -0.0323,-0.33313 0.002,-0.37716 0.35041,-0.45376 0.21242,-0.0466 0.61627,-0.19604 0.89744,-0.33197 l 0.51123,-0.24715 -0.0558,-3.32928 c -0.0452,-2.69726 -0.0912,-3.41244 -0.24239,-3.76735 -0.10264,-0.24093 -0.23372,-0.43806 -0.29129,-0.43806 -0.18492,0 -0.47209,0.39726 -0.80451,1.11293 -0.31976,0.68838 -0.32469,0.73412 -0.36823,3.41372 l -0.0442,2.71599 h -0.39654 -0.39654 l -0.007,-3.18325 c -0.007,-3.24314 -0.0929,-4.00098 -0.45512,-4.00098 -0.26941,0 -0.80127,0.87117 -0.9956,1.63078 -0.13159,0.51432 -0.17813,1.33078 -0.17813,3.12484 v 2.42861 h -0.40073 -0.40073 l -0.0374,-3.30484 -0.0374,-3.30485 -0.35973,-0.72533 -0.35974,-0.72534 h 0.37083 c 0.43537,0 0.71703,0.26946 0.93039,0.89009 l 0.15068,0.43829 0.24195,-0.47427 c 0.25443,-0.49871 0.86373,-1.08774 1.12518,-1.08774 0.21279,0 0.85997,0.75855 0.94866,1.1119 0.04,0.15944 0.10648,0.28824 0.1477,0.28621 0.0412,-0.002 0.21482,-0.2343 0.38578,-0.51615 0.17095,-0.28186 0.45298,-0.60562 0.62674,-0.71947 0.28434,-0.1863 0.34671,-0.18973 0.62372,-0.0343 0.46856,0.26288 0.85281,1.06271 0.92147,1.91814 l 0.0595,0.74138 0.3781,-0.4009 c 0.20795,-0.22049 0.44105,-0.4009 0.518,-0.4009 0.60319,0 1.06957,1.02217 1.14914,2.51853 0.0878,1.65181 -0.34432,2.84676 -1.46138,4.04099 l -0.51154,0.54687 0.32747,0.62301 c 0.18011,0.34266 0.3453,0.66243 0.36709,0.71062 0.0218,0.0482 -0.17573,0.0876 -0.43892,0.0876 -0.4495,0 -0.4936,-0.031 -0.72717,-0.51179 z m 0.84762,-2.54208 c 0.53753,-0.7549 0.80015,-1.61669 0.80309,-2.63545 0.005,-1.61892 -0.38364,-2.01332 -0.89105,-0.905 -0.25768,0.56286 -0.30531,0.86316 -0.36132,2.27793 -0.0695,1.75697 -0.014,1.91311 0.44928,1.26252 z"
       style="font-variation-settings:normal;opacity:1;vector-effect:none;fill:#deaa87;fill-opacity:1;stroke-width:0.441512;stroke-linecap:butt;stroke-linejoin:miter;stroke-miterlimit:4;stroke-dasharray:none;stroke-dashoffset:0;stroke-opacity:1;-inkscape-stroke:none;stop-color:#000000;stop-opacity:1"
       id="path32"
       inkscape:label="Virgo"
       transform="translate(-2.891632,-31.177336)" /></g></svg>
